<?xml version="1.0" encoding="utf-8"?>
<!-- Generator: Adobe Illustrator 21.1.0, SVG Export Plug-In . SVG Version: 6.00 Build 0)  -->
<svg version="1.1" id="Layer_1" xmlns="http://www.w3.org/2000/svg" xmlns:xlink="http://www.w3.org/1999/xlink" x="0px" y="0px"
	 viewBox="0 0 677.9 796.9" style="enable-background:new 0 0 677.9 796.9;" xml:space="preserve">
<style type="text/css">
	.st0{fill:#FFFFFF;}
	.st1{fill:#D2ECF4;}
	.st2{fill:#E4F4F8;}
	.st3{fill:#DBEAED;}
	.st4{fill:none;stroke:#53657C;stroke-width:0.4;stroke-miterlimit:10;}
	.st5{display:none;}
	.st6{display:inline;}
	.st7{fill:none;stroke:#53657C;stroke-width:2.5;stroke-linejoin:round;}
	.st8{fill:none;stroke:#53657C;stroke-width:2.5;stroke-linejoin:round;stroke-dasharray:9.1168,3.0389;}
	.st9{fill:#53657C;}
	.st10{fill:none;stroke:#53657C;stroke-width:0.5;stroke-miterlimit:10;}
	.st11{fill:none;stroke:#53657C;stroke-width:2.5;stroke-miterlimit:10;}
	.st12{display:inline;fill:#53657C;}
	.st13{font-family:'ProximaNova-Regular';}
	.st14{font-size:12.0006px;}
	.st15{font-family:'ProximaNova-Semibold';}
	.st16{font-size:16.0008px;}
	.st17{font-size:12.6843px;}
	.st18{font-size:16.9123px;}
	.st19{fill:#E3F3F8;}
	.st20{fill:#DAF0F6;}
	.st21{fill:#F4FAFC;}
	.st22{fill:none;stroke:#53657C;stroke-width:2;stroke-miterlimit:10;}
	.st23{fill:none;stroke:#53657C;stroke-width:2;stroke-linejoin:bevel;stroke-miterlimit:10;}
	.st24{fill:#FDEA1D;}
	.st25{fill:#FFFF00;}
	.st26{fill:#66A5D4;}
	.st27{fill:#78B9E6;}
	.st28{fill:none;stroke:#53657C;stroke-width:2.25;stroke-miterlimit:10;}
	.st29{fill:none;stroke:#53657C;stroke-width:3;stroke-miterlimit:10;}
	.st30{fill:none;stroke:#53657C;stroke-width:2.25;stroke-linejoin:round;stroke-miterlimit:10;}
	.st31{fill:#D2ECF4;fill-opacity:0.2;}
	.st32{opacity:0.5;}
	.st33{fill:none;stroke:#53657C;stroke-width:1.5;stroke-linejoin:round;stroke-miterlimit:10;stroke-dasharray:9,3;}
	.st34{fill:none;stroke:#53657C;stroke-width:2.25;stroke-linejoin:round;}
	.st35{fill:none;stroke:#53657C;stroke-width:2.25;stroke-linejoin:round;stroke-dasharray:9.266,3.0887;}
	.st36{fill:none;stroke:#53657C;stroke-width:2.25;stroke-linejoin:round;stroke-dasharray:8.8642,2.9547;}
	.st37{fill:none;stroke:#53657C;stroke-width:2.25;stroke-linejoin:round;stroke-dasharray:8.9921,2.9974;}
	.st38{fill:none;stroke:#53657C;stroke-width:2.25;stroke-linejoin:round;stroke-dasharray:9.8049,3.2683;}
	.st39{fill:none;stroke:#53657C;stroke-width:2.25;stroke-linejoin:round;stroke-dasharray:9.0585,3.0195;}
	.st40{fill:none;stroke:#53657C;stroke-width:2.25;stroke-linejoin:round;stroke-dasharray:9.1138,3.0379;}
	.st41{fill:none;stroke:#53657C;stroke-width:2.25;stroke-linejoin:round;stroke-dasharray:8.1711,2.7237;}
	.st42{fill:none;stroke:#53657C;stroke-width:2.25;stroke-linejoin:round;stroke-dasharray:9.1087,3.0362;}
	.st43{fill:none;stroke:#53657C;stroke-width:2.25;stroke-linejoin:round;stroke-dasharray:8.9787,2.9929;}
	.st44{fill:none;stroke:#53657C;stroke-width:2.25;stroke-linejoin:round;stroke-dasharray:9.2221,3.074;}
	.st45{fill:none;stroke:#53657C;stroke-width:2.25;stroke-linejoin:round;stroke-dasharray:7.56,2.52;}
	.st46{fill:none;stroke:#53657C;stroke-width:2.25;stroke-linejoin:round;stroke-dasharray:9.149,3.0497;}
	.st47{fill:none;stroke:#53657C;stroke-width:2.25;stroke-linejoin:round;stroke-dasharray:9.1158,3.0386;}
	.st48{fill:none;stroke:#53657C;stroke-width:2.25;stroke-linejoin:round;stroke-dasharray:8.8641,2.9547;}
	.st49{fill:none;stroke:#53657C;stroke-width:2.25;stroke-linejoin:round;stroke-dasharray:8.4612,2.8204;}
	.st50{fill:none;stroke:#53657C;stroke-width:2.25;stroke-linejoin:round;stroke-dasharray:10.2,3.4;}
	.st51{fill:none;stroke:#53657C;stroke-width:2.25;stroke-linejoin:round;stroke-dasharray:7.8899,2.63;}
	.st52{fill:none;}
	.st53{fill:none;stroke:#53657C;stroke-width:2.5;stroke-linejoin:round;stroke-dasharray:8.7539,2.918;}
	.st54{fill:none;stroke:#53657C;stroke-width:2.5;stroke-linejoin:round;stroke-dasharray:8.7383,2.9128;}
	.st55{fill:none;stroke:#53657C;stroke-width:2.5;stroke-linejoin:round;stroke-dasharray:8.8603,2.9534;}
	.st56{fill:none;stroke:#53657C;stroke-width:2.5;stroke-linejoin:round;stroke-dasharray:9.6597,3.2199;}
	.st57{fill:none;stroke:#53657C;stroke-width:2.5;stroke-linejoin:round;stroke-dasharray:12.0633,4.0211;}
	.st58{fill:none;stroke:#53657C;stroke-width:2.5;stroke-linejoin:round;stroke-dasharray:7.7827,2.5942;}
	.st59{fill:none;stroke:#53657C;stroke-width:2.5;stroke-linejoin:round;stroke-dasharray:10.7239,3.5746;}
	.st60{fill:none;stroke:#53657C;stroke-width:2.5;stroke-linejoin:round;stroke-dasharray:9.3567,3.1189;}
	.st61{fill:none;stroke:#53657C;stroke-width:2.5;stroke-linejoin:round;stroke-dasharray:8.6598,2.8866;}
	.st62{fill:none;stroke:#53657C;stroke-width:2.5;stroke-linejoin:round;stroke-dasharray:8.5601,2.8534;}
	.st63{fill:none;stroke:#53657C;stroke-width:2.5;stroke-linejoin:round;stroke-dasharray:9.4429,3.1476;}
	.st64{fill:none;stroke:#53657C;stroke-width:2.5;stroke-linejoin:round;stroke-dasharray:9.0481,3.016;}
	.st65{fill:none;stroke:#53657C;stroke-width:2.5;stroke-linejoin:round;stroke-dasharray:8.7377,2.9126;}
	.st66{fill:none;stroke:#53657C;stroke-width:2.5;stroke-linejoin:round;stroke-dasharray:9.6682,3.2227;}
	.st67{fill:none;stroke:#53657C;stroke-width:2.5;stroke-linejoin:round;stroke-dasharray:9.1161,3.0387;}
	.st68{fill:none;stroke:#53657C;stroke-width:2.5;stroke-linejoin:round;stroke-dasharray:9.4421,3.1474;}
	.st69{fill:none;stroke:#53657C;stroke-width:2.5;stroke-linejoin:round;stroke-dasharray:9.147,3.049;}
	.st70{fill:none;stroke:#53657C;stroke-width:2.5;stroke-linejoin:round;stroke-dasharray:9.2514,3.0838;}
	.st71{fill:none;stroke:#53657C;stroke-width:2.5;stroke-linejoin:round;stroke-dasharray:9.1195,3.0398;}
	.st72{fill:none;stroke:#53657C;stroke-width:2.5;stroke-linejoin:round;stroke-dasharray:8.4262,2.8087;}
	.st73{fill:none;stroke:#53657C;stroke-width:2.5;stroke-linejoin:round;stroke-dasharray:9.5186,3.1729;}
	.st74{fill:none;stroke:#53657C;stroke-width:2.5;stroke-linejoin:round;stroke-dasharray:7.6841,2.5614;}
	.st75{fill:none;stroke:#53657C;stroke-width:2.5;stroke-linejoin:round;stroke-dasharray:9.141,3.047;}
	.st76{fill:none;stroke:#53657C;stroke-width:2.5;stroke-linejoin:round;stroke-dasharray:9.1179,3.0393;}
</style>
<g id="lot-shadow">
	<g>
		<g>
			<polygon class="st0" points="603.1,588.5 402.6,704.3 321.3,635.5 210.1,541.3 98.9,447.1 299.4,331.4 375.9,287.2 514.8,404.8 
				438.3,448.9 521.9,519.7 			"/>
		</g>
	</g>
</g>
<g id="lot-fill">
	<polygon class="st1" points="210.1,541.3 98.9,447.1 299.4,331.4 410.7,425.5 	"/>
	<polygon class="st1" points="603.1,588.5 521.9,519.7 321.3,635.5 402.6,704.3 	"/>
	<polygon class="st1" points="321.3,635.5 521.9,519.7 410.7,425.5 210.1,541.3 	"/>
	<polygon class="st1" points="299.4,331.4 375.9,287.2 514.8,404.8 438.3,448.9 	"/>
</g>
<g id="zoning-anno">
	<polygon class="st2" points="208,384.1 319.2,478.3 210,541.2 99.2,447.1 	"/>
	<polygon class="st2" points="542.2,667.1 432.2,730.1 402.2,704.6 511.7,641.3 	"/>
	<polygon class="st3" points="511.7,641.3 402.2,704.6 210,541.2 319.2,478.3 	"/>
	<polygon class="st2" points="210,541.2 402.2,704.6 351.9,733.6 159,570.6 	"/>
	<polygon class="st2" points="603.1,588.5 511.7,641.3 319.2,478.3 410.7,425.5 	"/>
	<line class="st4" x1="523.2" y1="180.6" x2="444.6" y2="227.9"/>
	<line class="st4" x1="523.2" y1="355.1" x2="498.7" y2="369.9"/>
	<line class="st4" x1="201.2" y1="380" x2="184.6" y2="390"/>
	<g class="st5">
		<g class="st6">
			<g>
				<line class="st7" x1="541.8" y1="667.4" x2="538.3" y2="664.5"/>
				<line class="st8" x1="536" y1="662.5" x2="212.6" y2="388.4"/>
				<line class="st7" x1="211.4" y1="387.4" x2="208" y2="384.5"/>
			</g>
		</g>
		<g class="st6">
			<g>
				<line class="st7" x1="98.9" y1="447.1" x2="102.3" y2="450.1"/>
				<line class="st8" x1="104.6" y1="452" x2="428.1" y2="726.1"/>
				<line class="st7" x1="429.2" y1="727.1" x2="432.7" y2="730"/>
			</g>
		</g>
	</g>
	<g>
		<path class="st9" d="M491.4,679l5.6-4.7l-8.5,2.2l-1.4-1.2l7.5-6.5l1.5,1.2l-5.9,4.8l8.9-2.3l1,0.9l-5.8,4.9l8.8-2.4l1.5,1.2
			l-11.7,2.9L491.4,679z"/>
		<path class="st9" d="M495.8,682.7l9.6-4.7l1.3,1.1l-9.6,4.7L495.8,682.7z"/>
		<path class="st9" d="M498.7,685.2l9.6-4.7l2.8,2.3c2.3,2,1.9,4.2-0.9,5.6c-2.8,1.4-6.4,1-8.7-0.9L498.7,685.2z M508.8,687.3
			c1.8-0.9,2.4-2.4,0.8-3.8l-1.5-1.2l-6.6,3.2l1.5,1.2C504.6,688.1,507,688.2,508.8,687.3z"/>
		<path class="st9" d="M506.7,691.8l9.6-4.7l5.1,4.3l-1.5,0.7l-3.8-3.2l-2.5,1.2l3.7,3.1l-1.5,0.7l-3.7-3.1l-2.7,1.3l3.8,3.2
			l-1.5,0.7L506.7,691.8z"/>
		<path class="st9" d="M516.9,698.6h2c-0.2,0.8,0,1.8,1,2.6c1.1,0.9,2.2,0.9,2.8,0.6c2-1-3.6-4-0.1-5.7c1.6-0.8,3.9-0.5,5.5,0.9
			c1.2,1,1.6,2,1.4,3h-2c0.2-0.9-0.3-1.7-1.1-2.4c-0.8-0.6-1.7-0.8-2.4-0.5c-1.8,0.9,3.7,4,0.1,5.7c-1.6,0.8-3.9,0.7-5.9-1
			C517,700.8,516.7,699.6,516.9,698.6z"/>
		<path class="st9" d="M524.3,706.7l8.1-4l-2.3-1.9l1.5-0.7l5.8,4.9l-1.5,0.7l-2.3-1.9l-8.1,4L524.3,706.7z"/>
		<path class="st9" d="M533.3,714.2l1.9-3.1l-1.3-1.1l-3.6,1.8l-1.3-1.1l9.6-4.7l3.3,2.8c1.5,1.2,1.2,2.7-0.6,3.5
			c-1.7,0.8-3.5,0.6-4.6-0.1l-1.9,3.4L533.3,714.2z M540,711c0.9-0.5,1-1.2,0.2-1.8l-1.8-1.5l-3,1.5l1.8,1.5
			C537.9,711.3,539.1,711.5,540,711z"/>
		<path class="st9" d="M536.1,716.5l9.6-4.7l5.1,4.3l-1.5,0.7l-3.8-3.2l-2.5,1.2l3.7,3.1l-1.5,0.7l-3.7-3.1l-2.7,1.3l3.8,3.2
			l-1.5,0.7L536.1,716.5z"/>
		<path class="st9" d="M542.5,721.9l9.6-4.7l5.1,4.3l-1.5,0.7l-3.8-3.2l-2.5,1.2l3.7,3.1l-1.5,0.7l-3.6-3l-2.7,1.3l3.8,3.2l-1.5,0.7
			L542.5,721.9z"/>
		<path class="st9" d="M550.8,728.8l8.1-4l-2.3-1.9l1.5-0.7l5.8,4.9l-1.5,0.7l-2.3-1.9l-8.1,4L550.8,728.8z"/>
		<path class="st9" d="M473.1,686.6c0-0.3,0.1-0.6,0.2-1c-1.2-0.2-2.2-0.6-3.1-1.3c-1.3-1.1-1.5-2.5,0.3-3.3c1.5-0.7,3-0.5,4.4,0
			c0.4-0.6,0.9-1.2,1.6-1.5c1.3-0.6,3.1-0.4,4.3,0.6c1,0.8,1.1,1.9-0.1,2.5c-1.5,0.7-3,0.2-4.5-0.3c-0.2,0.4-0.4,0.9-0.5,1.2
			c-0.1,0.4-0.3,0.8-0.4,1.2c1,0,2.1-0.2,2.8-0.4l0.4,1.1c-1,0.2-2.2,0.3-3.4,0.3c-0.2,0.7-0.3,1.4-0.4,2.1L473.1,686.6z
			 M473.5,684.7c0.1-0.6,0.3-1.1,0.4-1.4c0.1-0.4,0.3-0.9,0.5-1.4c-0.9-0.2-1.8-0.3-2.6,0.1c-1,0.5-1,1.3-0.3,1.9
			C472,684.3,472.7,684.5,473.5,684.7z M476.6,681.6c1.1,0.4,2.2,0.6,3,0.2c0.6-0.3,0.6-0.7,0.2-1.1c-0.5-0.4-1.4-0.5-2.1-0.2
			C477.3,680.8,476.9,681.1,476.6,681.6z"/>
		<path class="st9" d="M483,688.5c3-1.4,6.7-1,8.9,0.9c1.5,1.3,1.4,2.5,0.8,3.6l-1.9-0.6c0.4-0.7,0.3-1.6-0.5-2.3
			c-1.5-1.2-4-1.5-6-0.5s-2.4,2.6-0.9,3.9c0.8,0.7,2.1,1,3.3,0.9l0.4,1.3c-1.7,0.1-3.7-0.2-5.2-1.5C479.8,692.4,480.1,690,483,688.5
			z"/>
		<path class="st9" d="M490.7,694.9c2.9-1.4,6.5-1.1,8.8,0.8c2.2,1.9,1.7,4.2-1.1,5.6c-2.9,1.4-6.5,1.1-8.8-0.8
			C487.3,698.7,487.8,696.3,490.7,694.9z M496.9,700.2c2-1,2.5-2.5,1-3.8s-4-1.4-5.9-0.4c-2,1-2.5,2.5-1,3.8S495,701.2,496.9,700.2z
			"/>
		<path class="st9" d="M499,708.3l1.9-3.1l-1.3-1.1l-3.6,1.8l-1.3-1.1l9.6-4.7l3.3,2.8c1.5,1.2,1.2,2.7-0.6,3.5
			c-1.7,0.8-3.5,0.6-4.6-0.1l-1.9,3.4L499,708.3z M505.7,705.2c0.9-0.4,1-1.2,0.2-1.8l-1.8-1.5l-3,1.5l1.8,1.5
			C503.7,705.5,504.8,705.7,505.7,705.2z"/>
		<path class="st9" d="M507,715l3-6.6l-6.9,3.4l-1.3-1.1l9.6-4.7l1.3,1.1l-2.8,6.5l6.6-3.2l1.3,1.1l-9.6,4.7L507,715z"/>
		<path class="st9" d="M509.9,717.4l9.6-4.7l5.1,4.3l-1.5,0.7l-3.8-3.2l-2.5,1.2l3.7,3.1l-1.5,0.7l-3.7-3.1l-2.7,1.3l3.8,3.2
			l-1.5,0.7L509.9,717.4z"/>
		<path class="st9" d="M520.6,726.4l1.9-3.1l-1.3-1.1l-3.6,1.8l-1.3-1.1l9.6-4.7l3.3,2.8c1.5,1.2,1.2,2.7-0.6,3.5
			c-1.7,0.8-3.5,0.6-4.6-0.1l-1.9,3.4L520.6,726.4z M527.3,723.3c0.9-0.4,1-1.2,0.2-1.8l-1.8-1.5l-3,1.5l1.8,1.5
			C525.2,723.6,526.4,723.8,527.3,723.3z"/>
		<path class="st9" d="M524.2,727.7h2c-0.2,0.8,0,1.8,1,2.6c1.1,0.9,2.2,0.9,2.8,0.6c2-1-3.6-4-0.1-5.7c1.6-0.8,3.9-0.5,5.5,0.9
			c1.2,1,1.6,2,1.4,3h-2c0.2-0.9-0.3-1.7-1.1-2.4c-0.8-0.6-1.7-0.8-2.4-0.5c-1.8,0.9,3.7,4,0.1,5.7c-1.6,0.8-3.9,0.7-5.9-1
			C524.4,729.8,524,728.7,524.2,727.7z"/>
	</g>
	<g>
		<g>
			<path class="st9" d="M198.8,578.2h2c-0.2,0.8,0,1.8,1,2.6c1.1,0.9,2.2,0.9,2.8,0.6c2-1-3.6-4-0.1-5.7c1.6-0.8,3.9-0.5,5.5,0.9
				c1.2,1,1.6,2,1.4,3h-2c0.2-0.9-0.3-1.7-1.1-2.4c-0.8-0.6-1.7-0.8-2.4-0.5c-1.8,0.9,3.7,4,0.1,5.7c-1.6,0.8-3.9,0.7-5.9-1
				C199,580.3,198.6,579.2,198.8,578.2z"/>
			<path class="st9" d="M204.6,584.8l9.6-4.7l3.3,2.8c1.6,1.3,1.1,2.7-0.6,3.5c-1.6,0.8-3.9,0.7-5.4-0.6l-2-1.7l-3.6,1.8
				L204.6,584.8z M215.6,585.3c0.9-0.5,1-1.2,0.3-1.8l-1.8-1.5l-3,1.5l1.8,1.5C213.5,585.6,214.7,585.7,215.6,585.3z"/>
			<path class="st9" d="M211.4,590.5l9.6-4.7l5.1,4.3l-1.5,0.7l-3.8-3.2l-2.5,1.2l3.7,3.1l-1.5,0.7l-3.7-3.1l-2.7,1.3l3.8,3.2
				l-1.5,0.7L211.4,590.5z"/>
			<path class="st9" d="M222.4,593.3c3-1.4,6.7-1,8.9,0.9c1.5,1.3,1.4,2.5,0.8,3.6l-1.9-0.6c0.4-0.7,0.3-1.6-0.5-2.3
				c-1.5-1.2-4-1.5-6-0.5s-2.4,2.6-0.9,3.9c0.8,0.7,2.1,1,3.3,0.9l0.4,1.3c-1.7,0.1-3.7-0.2-5.2-1.5
				C219.1,597.2,219.4,594.8,222.4,593.3z"/>
			<path class="st9" d="M225.5,602.4l9.6-4.7l1.3,1.1l-9.6,4.7L225.5,602.4z"/>
			<path class="st9" d="M233.7,609.2l1.3-1.4l-3.4-2.9l-2.4,0.4l-1.5-1.2l12.5-2.2l1.6,1.4l-6.7,7.2L233.7,609.2z M239.3,603.4
				l-5.9,1.1l2.7,2.3L239.3,603.4z"/>
			<path class="st9" d="M235.9,611l9.6-4.7l1.3,1.1l-8.1,4l3.3,2.8l-1.5,0.7L235.9,611z"/>
			<path class="st9" d="M244.5,618.3l9.6-4.7l3.3,2.8c1.6,1.3,1.1,2.7-0.6,3.5c-1.6,0.8-3.9,0.7-5.4-0.6l-2-1.7l-3.6,1.8
				L244.5,618.3z M255.5,618.8c0.9-0.4,1-1.2,0.3-1.8l-1.8-1.5l-3,1.5l1.8,1.5C253.5,619.1,254.6,619.2,255.5,618.8z"/>
			<path class="st9" d="M255.2,622.2l5.8-2.8l1.3,1.1l-5.8,2.8c-1.5,0.7-1.9,1.8-0.6,2.8c1.3,1,2.9,1.1,4.4,0.4l5.8-2.8l1.3,1.1
				l-5.8,2.8c-2.4,1.2-5,1-7.2-0.8C252.3,625,252.8,623.3,255.2,622.2z"/>
			<path class="st9" d="M263.7,634.4l1.9-3.1l-1.3-1.1l-3.6,1.8l-1.3-1.1l9.6-4.7l3.3,2.8c1.5,1.2,1.2,2.7-0.6,3.5
				c-1.7,0.8-3.5,0.6-4.6-0.1l-1.9,3.4L263.7,634.4z M270.4,631.3c0.9-0.5,1-1.2,0.2-1.8l-1.8-1.5l-3,1.5l1.8,1.5
				C268.3,631.6,269.5,631.7,270.4,631.3z"/>
			<path class="st9" d="M266.5,636.7l9.6-4.7l3.3,2.8c1.6,1.3,1.1,2.7-0.6,3.5c-1.6,0.8-3.9,0.7-5.4-0.6l-2-1.7l-3.6,1.8
				L266.5,636.7z M277.4,637.2c0.9-0.4,1-1.2,0.3-1.8l-1.8-1.5l-3,1.5l1.8,1.5C275.4,637.5,276.5,637.6,277.4,637.2z"/>
			<path class="st9" d="M277.8,639.8c2.9-1.4,6.5-1.1,8.8,0.8c2.2,1.9,1.7,4.2-1.1,5.6c-2.9,1.4-6.6,1.1-8.8-0.8
				C274.4,643.6,274.9,641.2,277.8,639.8z M284.1,645.1c2-1,2.5-2.5,1-3.8s-4-1.4-5.9-0.4c-2,1-2.5,2.5-1,3.8
				C279.6,646,282.1,646.1,284.1,645.1z"/>
			<path class="st9" d="M282.7,648.6h2c-0.2,0.8,0,1.8,1,2.6c1.1,0.9,2.2,0.9,2.8,0.6c2-1-3.6-4-0.1-5.7c1.6-0.8,3.9-0.5,5.5,0.9
				c1.2,1,1.6,2,1.4,3h-2c0.2-0.9-0.3-1.7-1.1-2.4c-0.8-0.6-1.7-0.8-2.4-0.5c-1.8,0.9,3.7,4,0.1,5.7c-1.6,0.8-3.9,0.7-5.9-1
				C282.9,650.7,282.5,649.6,282.7,648.6z"/>
			<path class="st9" d="M288.5,655.2l9.6-4.7l5.1,4.3l-1.5,0.7l-3.8-3.2l-2.5,1.2l3.7,3.1l-1.5,0.7l-3.7-3.1l-2.7,1.3l3.8,3.2
				l-1.5,0.7L288.5,655.2z"/>
			<path class="st9" d="M297.9,663.1l9.6-4.7l2.8,2.3c2.3,2,1.9,4.2-0.9,5.6c-2.8,1.4-6.4,1-8.7-0.9L297.9,663.1z M308,665.2
				c1.8-0.9,2.4-2.4,0.8-3.8l-1.5-1.2l-6.6,3.2l1.5,1.2C303.8,666,306.2,666.1,308,665.2z"/>
			<path class="st9" d="M305.8,669.7l9.6-4.7l1.3,1.1l-9.6,4.7L305.8,669.7z"/>
			<path class="st9" d="M309.6,671.1h2c-0.2,0.8,0,1.8,1,2.6c1.1,0.9,2.2,0.9,2.8,0.6c2-1-3.6-4-0.1-5.7c1.6-0.8,3.9-0.5,5.5,0.9
				c1.2,1,1.6,2,1.4,3h-2c0.2-0.9-0.3-1.7-1.1-2.4c-0.8-0.6-1.7-0.8-2.4-0.5c-1.8,0.9,3.7,4,0.1,5.7c-1.6,0.8-3.9,0.7-5.9-1
				C309.7,673.2,309.4,672.1,309.6,671.1z"/>
			<path class="st9" d="M317,679.1l8.1-4l-2.3-1.9l1.5-0.7l5.8,4.9l-1.5,0.7l-2.3-1.9l-8.1,4L317,679.1z"/>
			<path class="st9" d="M326,686.6l1.9-3.1l-1.3-1.1l-3.6,1.8l-1.3-1.1l9.6-4.7l3.3,2.8c1.5,1.2,1.2,2.7-0.6,3.5
				c-1.7,0.8-3.5,0.6-4.6-0.1l-1.9,3.4L326,686.6z M332.7,683.5c0.9-0.5,1-1.2,0.2-1.8l-1.8-1.5l-3,1.5l1.8,1.5
				C330.6,683.8,331.8,684,332.7,683.5z"/>
			<path class="st9" d="M328.8,689l9.6-4.7l1.3,1.1l-9.6,4.7L328.8,689z"/>
			<path class="st9" d="M336.1,688.8c3-1.4,6.7-1,8.9,0.9c1.5,1.3,1.4,2.5,0.8,3.6l-1.9-0.6c0.4-0.7,0.3-1.6-0.5-2.3
				c-1.5-1.2-4-1.5-6-0.5s-2.4,2.6-0.9,3.9c0.8,0.7,2.1,1,3.3,0.9l0.4,1.3c-1.7,0.1-3.7-0.2-5.2-1.5
				C332.9,692.7,333.2,690.2,336.1,688.8z"/>
			<path class="st9" d="M341.1,699.3l8.1-4l-2.3-1.9l1.5-0.7l5.8,4.9l-1.5,0.7l-2.3-1.9l-8.1,4L341.1,699.3z"/>
			<path class="st9" d="M346.6,702.1h2c-0.2,0.8,0,1.8,1,2.6c1.1,0.9,2.2,0.9,2.8,0.6c2-1-3.6-4-0.1-5.7c1.6-0.8,3.9-0.5,5.5,0.9
				c1.2,1,1.6,2,1.4,3h-2c0.2-0.9-0.3-1.7-1.1-2.4c-0.8-0.6-1.7-0.8-2.4-0.5c-1.8,0.9,3.7,4,0.1,5.7c-1.6,0.8-3.9,0.7-5.9-1
				C346.7,704.3,346.4,703.1,346.6,702.1z"/>
		</g>
	</g>
	<g>
		<g>
			<path class="st9" d="M530.8,174.5c0-3.2,1.8-6.6,4.3-8c2.5-1.5,4.3-0.2,4.3,3s-1.8,6.6-4.3,8C532.5,179,530.8,177.7,530.8,174.5z
				 M537.9,170.4c0-2.2-1.1-3.2-2.8-2.2s-2.8,3.3-2.8,5.5s1.1,3.2,2.8,2.2C536.8,174.9,537.9,172.6,537.9,170.4z"/>
			<path class="st9" d="M543,172.8l-3.3-8.8l1.7-1l2.6,7.2l2.6-10.1l1.7-1l-3.3,12.6L543,172.8z"/>
			<path class="st9" d="M549.1,169.2v-10.7l5.8-3.3v1.6l-4.3,2.5v2.8l4.2-2.4v1.6l-4.2,2.4v3l4.3-2.5v1.6L549.1,169.2z"/>
			<path class="st9" d="M561.2,162.2l-1.9-2.9l-1.5,0.9v4l-1.5,0.9v-10.7l3.7-2.1c1.7-1,2.8-0.2,2.8,1.7s-1,3.5-2,4.3l2.1,3
				L561.2,162.2z M561.3,154.8c0-1-0.6-1.3-1.4-0.8l-2,1.2v3.4l2-1.2C560.7,156.9,561.3,155.9,561.3,154.8z"/>
			<path class="st9" d="M570.3,157l-0.6-1.7l-3.9,2.2l-0.6,2.4l-1.7,1l3.3-12.6l1.8-1.1l3.3,8.8L570.3,157z M567.7,149.7l-1.5,6
				l3-1.8L567.7,149.7z"/>
			<path class="st9" d="M572.8,155.6v-10.7l1.5-0.9v9l3.7-2.1v1.6L572.8,155.6z"/>
			<path class="st9" d="M579.2,151.9v-10.7l1.5-0.9v9l3.7-2.1v1.6L579.2,151.9z"/>
			<path class="st9" d="M594.8,142.8v-4.7l-4.4,2.5v4.7l-1.5,0.9v-10.7l1.5-0.9v4.4l4.4-2.5v-4.4l1.5-0.9v10.7L594.8,142.8z"/>
			<path class="st9" d="M598.1,140.9v-10.7l5.8-3.3v1.6l-4.3,2.5v2.8l4.2-2.4v1.6l-4.2,2.4v3l4.3-2.5v1.6L598.1,140.9z"/>
			<path class="st9" d="M605.4,136.7V126l1.5-0.9v10.7L605.4,136.7z"/>
			<path class="st9" d="M608.3,129.7c0-3.4,2-6.7,4.4-8.1c1.6-1,2.7-0.6,3.4,0.3l-1.2,1.6c-0.5-0.5-1.3-0.7-2.2-0.2
				c-1.7,1-2.9,3.3-2.9,5.5c0,2.2,1.2,3.1,2.9,2.2c0.9-0.5,1.6-1.4,2-2.1v-1.6l-2.5,1.5v-1.6l4-2.3v4c-0.8,1.6-2,3.1-3.5,4
				C610.3,134.1,608.3,133.1,608.3,129.7z"/>
			<path class="st9" d="M623.6,126.2v-4.7l-4.4,2.5v4.7l-1.5,0.9v-10.7l1.5-0.9v4.4l4.4-2.5v-4.4l1.5-0.9v10.7L623.6,126.2z"/>
			<path class="st9" d="M628.9,123.1v-9l-2.6,1.5V114l6.6-3.8v1.6l-2.6,1.5v9L628.9,123.1z"/>
		</g>
	</g>
	<g>
		<g>
			<path class="st9" d="M531.1,354.7V344l4.2-2.4c1.6-0.9,2.4-0.2,2.4,1.3c0,1.3-0.7,2.6-1.5,3.3c0.9-0.4,1.6,0.4,1.6,1.7
				c0,1.7-0.9,3.4-2.5,4.3L531.1,354.7z M536.2,344.2c0-0.8-0.4-1.1-1.2-0.7l-2.4,1.4v2.8l2.4-1.4
				C535.7,345.8,536.2,345,536.2,344.2z M536.3,348.6c0-0.8-0.4-1.2-1.3-0.8l-2.4,1.4v3l2.4-1.4
				C535.8,350.3,536.3,349.5,536.3,348.6z"/>
			<path class="st9" d="M545.3,346.6l-0.6-1.7l-3.9,2.2l-0.6,2.4l-1.7,1l3.3-12.6l1.8-1.1l3.3,8.8L545.3,346.6z M542.7,339.2l-1.5,6
				l3-1.8L542.7,339.2z"/>
			<path class="st9" d="M547.2,343.9l0.8-1.9c0.6,0.5,1.5,0.6,2.7-0.1s1.7-1.7,1.7-2.4c0-2.2-4.9,2-4.9-1.9c0-1.8,1.2-3.8,3.1-4.9
				c1.3-0.8,2.4-0.8,3.2-0.3l-0.8,1.9c-0.7-0.5-1.6-0.3-2.5,0.2s-1.4,1.4-1.4,2.1c0,2,4.9-2.1,4.9,1.9c0,1.8-1,3.9-3.3,5.2
				C549.1,344.6,547.9,344.5,547.2,343.9z"/>
			<path class="st9" d="M555.3,340.8v-10.7l5.8-3.3v1.6l-4.3,2.5v2.8l4.2-2.4v1.6l-4.2,2.4v3l4.3-2.5v1.6L555.3,340.8z"/>
			<path class="st9" d="M571.7,331.3v-4.7l-4.4,2.5v4.7l-1.5,0.9V324l1.5-0.9v4.4l4.4-2.5v-4.4l1.5-0.9v10.7L571.7,331.3z"/>
			<path class="st9" d="M575,329.4v-10.7l5.8-3.3v1.6l-4.3,2.5v2.8l4.2-2.4v1.6l-4.2,2.4v3l4.3-2.5v1.6L575,329.4z"/>
			<path class="st9" d="M582.3,325.2v-10.7l1.5-0.9v10.7L582.3,325.2z"/>
			<path class="st9" d="M585.2,318.2c0-3.4,2-6.7,4.4-8.1c1.6-1,2.7-0.6,3.4,0.3l-1.2,1.6c-0.5-0.5-1.3-0.7-2.2-0.2
				c-1.7,1-2.9,3.3-2.9,5.5s1.2,3.1,2.9,2.2c0.9-0.5,1.6-1.4,2-2.1v-1.6l-2.5,1.5v-1.6l4-2.3v4c-0.8,1.6-2,3.1-3.5,4
				C587.2,322.6,585.2,321.5,585.2,318.2z"/>
			<path class="st9" d="M600.5,314.7V310l-4.4,2.5v4.7l-1.5,0.9v-10.7l1.5-0.9v4.4l4.4-2.5V304l1.5-0.9v10.7L600.5,314.7z"/>
			<path class="st9" d="M605.8,311.6v-9l-2.6,1.5v-1.6l6.6-3.8v1.6l-2.6,1.5v9L605.8,311.6z"/>
		</g>
	</g>
	<g>
		<g>
			<path class="st9" d="M535.9,491.5l-1.9-2.9l-1.5,0.9v4l-1.5,0.9v-10.7l3.7-2.1c1.7-1,2.8-0.2,2.8,1.7c0,1.9-1,3.5-2,4.3l2.1,3
				L535.9,491.5z M536.1,484.1c0-1-0.6-1.3-1.4-0.8l-2,1.2v3.4l2-1.2C535.5,486.2,536.1,485.1,536.1,484.1z"/>
			<path class="st9" d="M539.1,489.7V479l5.8-3.3v1.6l-4.3,2.5v2.8l4.2-2.4v1.6l-4.2,2.4v3l4.3-2.5v1.6L539.1,489.7z"/>
			<path class="st9" d="M552.3,482.1l-0.6-1.7l-3.9,2.2l-0.6,2.4l-1.7,1l3.3-12.6l1.8-1.1l3.3,8.8L552.3,482.1z M549.8,474.7l-1.5,6
				l3-1.8L549.8,474.7z"/>
			<path class="st9" d="M559.7,477.8l-1.9-2.9l-1.5,0.9v4l-1.5,0.9V470l3.7-2.1c1.7-1,2.8-0.2,2.8,1.7c0,1.9-1,3.5-2,4.3l2.1,3
				L559.7,477.8z M559.9,470.4c0-1-0.6-1.3-1.4-0.8l-2,1.2v3.4l2-1.2C559.3,472.4,559.9,471.4,559.9,470.4z"/>
			<path class="st9" d="M568.6,472.7v-4.4l-3.3-4.3l1.7-1l2.3,3.2l2.3-5.9l1.7-1l-3.3,8.1v4.4L568.6,472.7z"/>
			<path class="st9" d="M579.3,466.5l-0.6-1.7l-3.9,2.2l-0.6,2.4l-1.7,1l3.3-12.6l1.8-1.1l3.3,8.8L579.3,466.5z M576.8,459.2l-1.5,6
				l3-1.8L576.8,459.2z"/>
			<path class="st9" d="M586.7,462.2l-1.9-2.9l-1.5,0.9v4l-1.5,0.9v-10.7l3.7-2.1c1.7-1,2.8-0.2,2.8,1.7c0,1.9-1,3.5-2,4.3l2.1,3
				L586.7,462.2z M586.9,454.8c0-1-0.6-1.3-1.4-0.8l-2,1.2v3.4l2-1.2C586.3,456.8,586.9,455.8,586.9,454.8z"/>
			<path class="st9" d="M589.9,460.4v-10.7l3.1-1.8c2.6-1.5,4.4-0.3,4.4,2.8c0,3.2-1.8,6.4-4.4,7.9L589.9,460.4z M595.9,451.6
				c0-2-1-3.1-2.9-2l-1.7,1v7.4l1.7-1C594.9,455.9,595.9,453.6,595.9,451.6z"/>
		</g>
	</g>
	<g>
		<g>
			<path class="st9" d="M76.7,446.4v-10.7l1.5-0.9v10.7L76.7,446.4z"/>
			<path class="st9" d="M85.9,441.1l-4.4-5.1v7.6l-1.5,0.9v-10.7l1.5-0.9l4.3,4.9v-7.4l1.5-0.9v10.7L85.9,441.1z"/>
			<path class="st9" d="M89.1,439.2v-10.7l1.5-0.9v10.7L89.1,439.2z"/>
			<path class="st9" d="M94.4,436.2v-9l-2.6,1.5V427l6.6-3.8v1.6l-2.6,1.5v9L94.4,436.2z"/>
			<path class="st9" d="M99.7,433.1v-10.7l1.5-0.9v10.7L99.7,433.1z"/>
			<path class="st9" d="M108.9,427.8l-0.6-1.7l-3.9,2.2l-0.6,2.4l-1.7,1l3.3-12.6l1.8-1.1l3.3,8.8L108.9,427.8z M106.4,420.5l-1.5,6
				l3-1.8L106.4,420.5z"/>
			<path class="st9" d="M111.4,426.4v-10.7l1.5-0.9v9l3.7-2.1v1.6L111.4,426.4z"/>
			<path class="st9" d="M120.6,419.5l0.8-1.9c0.6,0.5,1.5,0.6,2.7-0.1s1.7-1.7,1.7-2.4c0-2.2-4.9,2-4.9-1.9c0-1.8,1.2-3.8,3.1-4.9
				c1.3-0.8,2.4-0.8,3.2-0.3l-0.8,1.9c-0.7-0.5-1.6-0.3-2.5,0.2s-1.4,1.4-1.4,2.1c0,2,4.9-2.1,4.9,1.9c0,1.8-1,3.9-3.3,5.2
				C122.5,420.1,121.4,420.1,120.6,419.5z"/>
			<path class="st9" d="M128.7,416.4v-10.7l5.8-3.3v1.6l-4.3,2.5v2.8l4.2-2.4v1.6l-4.2,2.4v3l4.3-2.5v1.6L128.7,416.4z"/>
			<path class="st9" d="M138,411v-9l-2.6,1.5v-1.6l6.6-3.8v1.6l-2.6,1.5v9L138,411z"/>
			<path class="st9" d="M143.3,407.9v-10.7l4.2-2.4c1.6-0.9,2.4-0.2,2.4,1.3c0,1.3-0.7,2.6-1.5,3.3c0.9-0.4,1.6,0.4,1.6,1.7
				c0,1.7-0.9,3.4-2.5,4.3L143.3,407.9z M148.4,397.4c0-0.8-0.4-1.1-1.2-0.7l-2.4,1.4v2.8l2.4-1.4
				C147.9,399,148.4,398.2,148.4,397.4z M148.5,401.8c0-0.8-0.4-1.2-1.3-0.8l-2.4,1.4v3l2.4-1.4C148,403.6,148.5,402.7,148.5,401.8z
				"/>
			<path class="st9" d="M157.5,399.8l-0.6-1.7l-3.9,2.2l-0.6,2.4l-1.7,1l3.3-12.6l1.8-1.1l3.3,8.8L157.5,399.8z M154.9,392.5l-1.5,6
				l3-1.8L154.9,392.5z"/>
			<path class="st9" d="M159.3,393.4c0-3.3,1.9-6.6,4.4-8.1c1.7-1,2.8-0.5,3.4,0.4l-1.3,1.6c-0.4-0.7-1.2-0.8-2.1-0.3
				c-1.7,1-2.9,3.3-2.9,5.5s1.2,3.1,2.9,2.2c0.9-0.5,1.7-1.7,2.1-2.8l1.3,0.1c-0.6,1.7-1.7,3.4-3.4,4.4
				C161.2,397.8,159.3,396.7,159.3,393.4z"/>
			<path class="st9" d="M173.3,390.6l-2.8-2.9l-0.7,1.5v3.4l-1.5,0.9v-10.7l1.5-0.9v5.1l3.3-7l1.8-1.1l-3.4,7l3.7,3.5L173.3,390.6z"
				/>
		</g>
	</g>
</g>
<g id="lot-innerline">
	<polygon class="st10" points="210.1,541.3 98.9,447.1 299.4,331.4 410.7,425.5 	"/>
	<polygon class="st10" points="603.1,588.5 521.9,519.7 321.3,635.5 402.6,704.3 	"/>
	<polygon class="st10" points="321.3,635.5 521.9,519.7 410.7,425.5 210.1,541.3 	"/>
	<polygon class="st10" points="299.4,331.4 375.9,287.2 514.8,404.8 438.3,448.9 	"/>
</g>
<g id="lot-outline_1_">
	<polygon class="st11" points="603.1,588.5 402.6,704.3 321.3,635.5 210.1,541.3 98.9,447.1 299.4,331.4 375.9,287.2 514.8,404.8 
		438.3,448.9 521.9,519.7 	"/>
</g>
<g id="lot-anno">
	<g>
		<path class="st9" d="M355.3,326.5l-5.5-3.8l0.1,1.4l-1-0.1l-0.1-2.1l0.7-0.4l6.6,4.6L355.3,326.5z"/>
		<path class="st9" d="M358,324.9l-3.3-5.5l-3.4,2l-0.7-0.5l4.3-2.5l0.6,0.4l3.4,5.7L358,324.9z"/>
	</g>
	<g>
		<path class="st9" d="M352.4,353.7l-0.2-1.2c1.2,0.1,2.5-0.1,3.4-0.6c1.1-0.6,1.2-1.4,0.4-1.9c-0.9-0.6-1.9-0.5-3.1,0.2
			c-0.4,0.2-0.8,0.5-0.9,0.6l-1.4-1c0.2-0.1,0.6-0.4,1-0.5c1-0.6,1.4-1.2,0.6-1.8c-0.8-0.6-2-0.4-2.9,0.1s-1.2,1.1-1.2,1.9l-1.7-0.2
			c-0.1-0.9,0.3-1.9,1.7-2.7c1.8-1,3.9-1.1,5.4-0.1c1.2,0.8,0.9,1.9,0.2,2.4c0.9-0.4,2.7-0.6,4.1,0.4c1.5,1,1.3,2.5-0.6,3.6
			C355.5,353.7,353.7,353.9,352.4,353.7z"/>
		<path class="st9" d="M363.6,351h-1.1c0.2-0.4,0-1-0.3-1.4c0,0-0.1,0.1-0.2,0.2c-0.4,0.2-1.1,0.2-1.6-0.2c-0.5-0.3-0.5-0.8,0-1.1
			c0.5-0.3,1.4-0.3,2.2,0.3C363.4,349.4,363.8,350.3,363.6,351z"/>
		<path class="st9" d="M359.5,345.6c-2.2-1.5-3.5-3.7-1.2-5.1s5.6-0.3,7.8,1.2c2.2,1.5,3.5,3.7,1.2,5.1S361.6,347.2,359.5,345.6z
			 M364.6,342.6c-1.7-1.2-3.6-1.9-5-1.1s-0.4,2.1,1.3,3.3c1.7,1.2,3.7,1.9,5,1.1C367.3,345.1,366.3,343.8,364.6,342.6z"/>
		<path class="st9" d="M369.3,342.6c-1.1-0.8-1-1.8-0.4-2.7c-1.3,0.3-2.7,0.3-3.8-0.4c-1.6-1.1-0.7-2.5,0.8-3.4s3.7-1.3,5.4-0.2
			c1.1,0.8,1,1.7,0.3,2.5c1.4-0.3,3-0.3,4.1,0.5c1.6,1.1,0.9,2.6-0.8,3.5C373.2,343.5,370.9,343.7,369.3,342.6z M370,337
			c-0.7-0.5-1.8-0.4-2.8,0.1c-0.9,0.5-1.2,1.2-0.4,1.7c0.8,0.6,2.2,0.2,2.8-0.1C370.1,338.4,370.8,337.6,370,337z M374,339.6
			c-0.9-0.6-2.5-0.2-3.1,0c-0.4,0.4-1.2,1.3-0.3,2c0.8,0.5,2,0.4,3-0.1C374.5,341,374.8,340.2,374,339.6z"/>
		<path class="st9" d="M374.7,336.8c-2.2-1.5-3.5-3.7-1.2-5.1s5.6-0.3,7.8,1.2c2.2,1.5,3.5,3.7,1.2,5.1S376.9,338.4,374.7,336.8z
			 M379.9,333.8c-1.7-1.2-3.6-1.9-5-1.1s-0.4,2.1,1.3,3.3c1.7,1.2,3.7,1.9,5,1.1C382.6,336.3,381.5,335,379.9,333.8z"/>
		<path class="st9" d="M388.6,332.8l-0.4-1.3c1.2,0.1,2.7,0,3.9-0.7c1.2-0.7,1.1-1.4,0.5-1.8c-1.8-1.3-5.6,2.3-8.8,0.1
			c-1.5-1-1.4-2.5,0.5-3.6c1.3-0.7,2.8-1.1,4.4-0.9l0.3,1.3c-1.4-0.1-2.6,0.2-3.4,0.7c-0.9,0.5-1,1.1-0.3,1.6
			c1.6,1.1,5.5-2.4,8.8-0.1c1.5,1,1.7,2.5-0.5,3.8C391.9,332.7,390.2,332.9,388.6,332.8z"/>
		<path class="st9" d="M397.9,329l-8.7-6.1l5.7-3.3l1.4,0.9L392,323l2.3,1.6l4.2-2.4l1.4,0.9l-4.2,2.4l3.8,2.7L397.9,329z"/>
	</g>
	<g>
		<path class="st9" d="M319.2,394.9l0.8-0.4c4.3,0.7,6.7,1.1,8,0.5c1-0.5,0.8-1.2,0.1-1.7c-0.7-0.6-1.6-0.9-2.6-0.9l0.2-0.7
			c1.2,0,2.4,0.4,3.3,1.1c1,0.8,1.3,2-0.2,2.8s-4.2,0.4-7.5-0.1l2.9,2.4l-0.8,0.4L319.2,394.9z"/>
		<path class="st9" d="M325.4,398.6l1,0.1c-0.2,0.6-0.1,1.3,0.7,1.9c0.9,0.7,1.9,0.9,2.8,0.5c0.9-0.5,0.7-1.2-0.1-1.9
			c-0.2-0.2-0.5-0.4-0.6-0.5l0.9-0.4c0.1,0.1,0.4,0.3,0.6,0.5c0.7,0.6,1.8,1,2.6,0.5c0.8-0.4,0.7-1.1,0-1.7
			c-0.6-0.5-1.4-0.8-2.5-0.9l0.2-0.6c1.1,0,2.3,0.4,3.2,1.1c1.1,1,1.3,2,0,2.7c-1.1,0.5-2.4,0.2-3-0.2c0.5,0.5,0.7,1.5-0.5,2.1
			c-1.3,0.6-3,0.4-4.3-0.7C325.2,400.1,325,399.2,325.4,398.6z"/>
	</g>
	<g>
		<path class="st9" d="M426.3,481.8l0.8-0.4c4.3,0.7,6.7,1.1,8,0.5c1-0.5,0.8-1.2,0.1-1.7c-0.7-0.6-1.6-0.9-2.6-0.9l0.2-0.7
			c1.2,0,2.4,0.4,3.3,1.1c1,0.8,1.3,2-0.2,2.8s-4.2,0.4-7.5-0.1l2.9,2.4l-0.8,0.4L426.3,481.8z"/>
		<path class="st9" d="M434.1,488.4l1.9-0.9l-2.8-2.4l0.8-0.4l7.4-0.3l1,0.8l-4.8,2.4l0.8,0.7l-0.8,0.4l-0.8-0.7l-1.9,0.9
			L434.1,488.4z M440.8,485.1l-6,0.2l2.1,1.7L440.8,485.1z"/>
	</g>
	<g>
		<path class="st9" d="M522.5,565.6l0.8-0.4c4.3,0.7,6.7,1.1,8,0.5c1-0.5,0.8-1.2,0.1-1.7c-0.7-0.6-1.6-0.9-2.6-0.9l0.2-0.7
			c1.2,0,2.4,0.4,3.3,1.1c1,0.8,1.3,2-0.2,2.8s-4.2,0.4-7.5-0.1l2.9,2.4l-0.8,0.4L522.5,565.6z"/>
		<path class="st9" d="M528.9,569.6l1.1,0.1c-0.3,0.6-0.1,1.3,0.6,1.9c0.8,0.7,2.1,0.8,3,0.4c1-0.5,1.1-1.3,0.3-1.9
			c-0.5-0.4-1.2-0.7-2.1-0.8l-0.3-0.6l4.1-2l3.6,3l-0.8,0.4l-2.9-2.4l-2.6,1.3c0.7,0.1,1.5,0.3,2.1,0.8c1,0.8,1,2-0.5,2.8
			s-3.4,0.5-4.6-0.5C528.8,571.1,528.6,570.3,528.9,569.6z"/>
	</g>
	<g>
		<path class="st9" d="M278.9,388.5c1.3-0.6,3-0.4,4.4,0.2c-0.5-0.9-0.5-1.9,0.8-2.6c1.9-0.9,4.2,0,5.6,1.1c1.4,1.2,2.1,2.8,0.2,3.7
			c-1.3,0.6-2.8,0.4-4-0.2c0.5,1,0.4,2.1-0.8,2.8c-1.8,0.9-4.2,0.2-5.8-1.2C277.5,391,277,389.4,278.9,388.5z M283.7,392.3
			c1-0.5,0.4-1.7,0-2.1c-0.6-0.4-2.2-1.1-3.2-0.6c-0.9,0.4-0.7,1.3,0.2,2.1C281.6,392.4,282.8,392.7,283.7,392.3z M288.1,390
			c0.9-0.4,0.7-1.2-0.1-1.9c-0.9-0.7-2-1-2.8-0.6c-0.9,0.5-0.3,1.5,0.1,1.9C285.8,389.8,287.2,390.4,288.1,390z"/>
		<path class="st9" d="M282,397.3v-0.8c0.7,0.2,1.7,0.2,2.3,0l-0.2-0.1c-0.4-0.3-0.3-0.8,0.3-1.1c0.6-0.3,1.4-0.2,1.8,0.2
			c0.5,0.4,0.4,1-0.5,1.4C284.7,397.5,283.3,397.6,282,397.3z"/>
		<path class="st9" d="M289.8,401.1l2.3-1.1l-3.8-3.2l1.4-0.7l9.7-0.4l1.9,1.6l-6.3,3.1l1.1,0.9l-1.6,0.8l-1.1-0.9l-2.3,1.1
			L289.8,401.1z M298.3,397l-7.1,0.3l2.4,2L298.3,397z"/>
		<path class="st9" d="M294,404.7l11.6-1.7l-4.1-3.4l1.6-0.8l5.7,4.8l-1.2,0.6l-12,1.8L294,404.7z"/>
		<path class="st9" d="M302,407.9c1.3-0.6,3-0.4,4.4,0.2c-0.5-0.9-0.5-1.9,0.8-2.6c1.9-0.9,4.2,0,5.6,1.1s2.1,2.8,0.2,3.7
			c-1.3,0.6-2.8,0.4-4-0.2c0.5,1,0.4,2.1-0.8,2.8c-1.8,0.9-4.2,0.2-5.8-1.2C300.6,410.4,300.2,408.8,302,407.9z M306.9,411.7
			c1-0.5,0.4-1.7,0-2.1c-0.6-0.4-2.2-1.1-3.2-0.6c-0.9,0.4-0.7,1.3,0.2,2.1C304.7,411.8,306,412.1,306.9,411.7z M311.2,409.4
			c0.9-0.4,0.7-1.2-0.1-1.9c-0.9-0.7-2-1-2.8-0.6c-0.9,0.5-0.3,1.5,0.1,1.9C308.9,409.2,310.3,409.8,311.2,409.4z"/>
		<path class="st9" d="M310.7,416.8h2.2c-0.2,0.8,0,1.9,1.1,2.8c1.1,1,2.3,1,3,0.6c2.1-1-3.8-4.2-0.1-6.1c1.7-0.8,4.1-0.5,5.9,1
			c1.2,1,1.7,2.1,1.5,3.2h-2.1c0.2-0.9-0.3-1.8-1.1-2.5c-0.8-0.7-1.8-0.9-2.6-0.5c-1.9,0.9,3.9,4.2,0.1,6.1c-1.7,0.8-4.1,0.8-6.2-1
			C310.9,419.1,310.5,417.9,310.7,416.8z"/>
		<path class="st9" d="M316.9,423.8l10.1-5l5.4,4.5l-1.6,0.8l-4-3.4l-2.6,1.3l3.9,3.3l-1.6,0.8l-3.9-3.3l-4.4,2.1L316.9,423.8z"/>
	</g>
	<g>
		<path class="st9" d="M386.3,475.7c1.3-0.6,3-0.4,4.4,0.2c-0.5-0.9-0.5-1.9,0.8-2.6c1.9-0.9,4.2,0,5.6,1.1c1.4,1.2,2.1,2.8,0.2,3.7
			c-1.3,0.6-2.8,0.4-4-0.2c0.5,1,0.4,2.1-0.8,2.8c-1.8,0.9-4.2,0.2-5.8-1.2C384.9,478.2,384.4,476.6,386.3,475.7z M391.1,479.5
			c1-0.5,0.4-1.7,0-2.1c-0.6-0.4-2.2-1.1-3.2-0.6c-0.9,0.4-0.7,1.3,0.2,2.1C389,479.5,390.2,479.9,391.1,479.5z M395.5,477.1
			c0.9-0.4,0.7-1.2-0.1-1.9c-0.9-0.7-2-1-2.8-0.6c-0.9,0.5-0.3,1.5,0.1,1.9C393.2,476.9,394.6,477.6,395.5,477.1z"/>
		<path class="st9" d="M389.4,484.5v-0.8c0.7,0.2,1.7,0.2,2.3,0l-0.2-0.1c-0.4-0.3-0.3-0.8,0.3-1.1c0.6-0.3,1.4-0.2,1.8,0.2
			c0.5,0.4,0.4,1-0.5,1.4C392.1,484.6,390.7,484.7,389.4,484.5z"/>
		<path class="st9" d="M393.7,485.4l11.6-1.7l-4.1-3.4l1.6-0.8l5.7,4.8l-1.2,0.6l-12,1.8L393.7,485.4z"/>
		<path class="st9" d="M400.6,489.4l2,0.1c-0.3,0.8,0,1.6,0.9,2.4c1,0.8,2.4,1,3.4,0.5c1.1-0.5,1.2-1.4,0.2-2.2
			c-0.7-0.6-1.5-0.9-2.6-1l-0.6-1l5.7-2.8l5.2,4.3l-1.6,0.8l-3.8-3.2l-2.9,1.4c0.9,0.1,1.9,0.4,2.7,1.1c1.3,1.1,1.3,2.7-0.7,3.7
			c-2.1,1-4.7,0.6-6.5-0.9C400.6,491.4,400.3,490.4,400.6,489.4z"/>
		<path class="st9" d="M409.8,498.9l2.3-1.1l-3.8-3.2l1.4-0.7l9.7-0.4l1.9,1.6l-6.3,3.1l1.1,0.9l-1.6,0.8l-1.1-0.9l-2.3,1.1
			L409.8,498.9z M418.3,494.7l-7.1,0.3l2.4,2L418.3,494.7z"/>
		<path class="st9" d="M417.4,503.3h2.2c-0.2,0.8,0,1.9,1.1,2.8c1.1,1,2.3,1,3,0.6c2.1-1-3.8-4.2-0.1-6.1c1.7-0.8,4.1-0.5,5.9,1
			c1.2,1,1.7,2.1,1.5,3.2h-2.1c0.2-0.9-0.3-1.8-1.1-2.5c-0.8-0.7-1.8-0.9-2.6-0.5c-1.9,0.9,3.9,4.2,0.1,6.1c-1.7,0.8-4.1,0.8-6.2-1
			C417.5,505.6,417.1,504.4,417.4,503.3z"/>
		<path class="st9" d="M423.5,510.4l10.1-5l5.4,4.5l-1.6,0.8l-4-3.4l-2.6,1.3l3.9,3.3l-1.6,0.8l-3.9-3.3l-4.4,2.1L423.5,510.4z"/>
	</g>
	<g>
		<path class="st9" d="M480.7,559.7l2,0.1c-0.3,0.8,0,1.6,0.9,2.4c1,0.8,2.4,1,3.4,0.5c1.1-0.5,1.2-1.4,0.2-2.2
			c-0.7-0.6-1.5-0.9-2.6-1l-0.6-1l5.7-2.8l5.2,4.3l-1.6,0.8l-3.8-3.2l-2.9,1.4c0.9,0.1,1.9,0.4,2.7,1.1c1.3,1.1,1.3,2.7-0.7,3.7
			c-2.1,1-4.7,0.6-6.5-0.9C480.7,561.7,480.4,560.7,480.7,559.7z"/>
		<path class="st9" d="M485,567.8V567c0.7,0.2,1.7,0.2,2.3,0l-0.2-0.1c-0.4-0.3-0.3-0.8,0.3-1.1c0.6-0.3,1.4-0.2,1.8,0.2
			c0.5,0.4,0.4,1-0.5,1.4C487.6,567.9,486.2,568,485,567.8z"/>
		<path class="st9" d="M493.9,565.9c2.6-1.2,6.2-1.8,8.4,0.1c2.2,1.9,0.5,3.9-2.1,5.2c-2.5,1.2-6.2,1.8-8.4-0.1
			C489.6,569.2,491.4,567.1,493.9,565.9z M498.8,570c1.9-1,3.2-2.2,1.9-3.2s-3.5-0.6-5.4,0.3c-1.9,0.9-3.2,2.2-1.9,3.3
			C494.7,571.4,496.9,570.9,498.8,570z"/>
		<path class="st9" d="M496.3,574.5l1.4-0.7c6,1.1,8.6,1.5,10,0.8c1.1-0.5,0.8-1.4,0.1-2c-0.9-0.8-2.1-1.1-3.3-1.2l0.3-1.2
			c1.8,0.1,3.4,0.7,4.5,1.7c1.5,1.3,1.8,2.9-0.3,3.9c-1.9,0.9-4.9,0.6-9.1-0.2l3.5,2.9l-1.6,0.8L496.3,574.5z"/>
		<path class="st9" d="M504.8,579.8l2,0.1c-0.3,0.8,0,1.6,0.9,2.4c1,0.8,2.4,1,3.4,0.5c1.1-0.5,1.2-1.4,0.2-2.2
			c-0.7-0.6-1.5-0.9-2.6-1l-0.6-1l5.7-2.8l5.2,4.3l-1.6,0.8l-3.8-3.2l-2.9,1.4c0.9,0.1,1.9,0.4,2.7,1.1c1.3,1.1,1.3,2.7-0.7,3.7
			c-2.1,1-4.7,0.6-6.5-0.9C504.8,581.9,504.4,580.8,504.8,579.8z"/>
		<path class="st9" d="M514.6,588.1h2.2c-0.2,0.8,0,1.9,1.1,2.8c1.1,1,2.3,1,3,0.6c2.1-1-3.8-4.2-0.1-6.1c1.7-0.8,4.1-0.5,5.9,1
			c1.2,1,1.7,2.1,1.5,3.2h-2.1c0.2-0.9-0.3-1.8-1.1-2.5s-1.8-0.9-2.6-0.5c-1.9,0.9,3.9,4.2,0.1,6.1c-1.7,0.8-4.1,0.8-6.2-1
			C514.8,590.3,514.4,589.1,514.6,588.1z"/>
		<path class="st9" d="M520.7,595.1l10.1-5l5.4,4.5l-1.6,0.8l-4-3.4l-2.6,1.3l3.9,3.3l-1.6,0.8l-3.9-3.3l-4.4,2.1L520.7,595.1z"/>
	</g>
	<g id="text" class="st5">
		<text transform="matrix(0.7849 -0.4532 0.8192 0.5736 353.6586 327.4252)" class="st12 st13 st14">17</text>
		<text transform="matrix(0.7849 -0.4532 0.8192 0.5736 353.1615 354.8356)" class="st12 st15 st16">3,080 SF</text>
		<text transform="matrix(0.7001 0.5874 -0.8985 0.4391 318.768 394.5413)" class="st12 st13 st17">23</text>
		<text transform="matrix(0.7001 0.5874 -0.8985 0.4391 425.7724 481.386)" class="st12 st13 st17">24</text>
		<text transform="matrix(0.7001 0.5874 -0.8985 0.4391 522.0168 565.2476)" class="st12 st13 st17">25</text>
		<text transform="matrix(0.7001 0.5874 -0.8985 0.4391 275.7488 389.3489)" class="st12 st15 st18">8,478 SF</text>
		<text transform="matrix(0.7001 0.5874 -0.8985 0.4391 382.7334 476.1764)" class="st12 st15 st18">8,754 SF</text>
		<text transform="matrix(0.7001 0.5874 -0.8985 0.4391 478.5042 559.6407)" class="st12 st15 st18">5,025 SF</text>
	</g>
</g>
<g id="ctx-bldg-back">
	<g id="Layer_26_copy">
		<polygon class="st19" points="420.2,433.7 420.2,355 496.7,310.8 496.7,389.5 		"/>
		<polygon class="st20" points="299.4,252.7 420.2,355 420.2,433.7 299.4,331.4 		"/>
		<polygon class="st21" points="299.4,252.7 375.9,208.5 496.7,310.8 420.2,355 		"/>
	</g>
	<g id="Layer_24_copy">
		<polygon class="st11" points="299.4,331.4 299.4,252.7 375.9,208.5 496.7,310.8 496.7,389.5 420.2,433.7 		"/>
		<polyline class="st22" points="299.4,252.7 420.2,355 496.7,310.8 		"/>
		<line class="st22" x1="420.2" y1="355" x2="420.2" y2="433.7"/>
	</g>
	<g id="Layer_25_copy">
		<polygon class="st19" points="320.7,439.5 321.3,348.8 294.6,326.2 384,274.6 384,402.9 		"/>
		<polygon class="st19" points="210.1,541.3 210.1,413 321.3,348.8 321.3,477.1 		"/>
		<polygon class="st20" points="98.9,447.1 98.9,318.9 210.1,413 210.1,541.3 		"/>
		<polygon class="st21" points="98.9,318.9 299.4,203.1 384,274.6 294.6,326.2 321.3,348.8 210.1,413 		"/>
	</g>
	<g id="Layer_23_copy">
		<polygon class="st11" points="384,402.9 384,274.6 299.4,203.1 98.9,318.9 98.9,447.1 210.1,541.3 321.3,477.1 320.7,439.5 		"/>
		<polyline class="st23" points="98.9,318.9 210.1,413 321.3,348.8 294.6,326.2 384,274.6 		"/>
		<line class="st22" x1="321.3" y1="439.5" x2="321.3" y2="348.8"/>
		<line class="st23" x1="210.1" y1="413" x2="210.1" y2="541.3"/>
	</g>
</g>
<g id="bldg-fill">
	<g id="BLDG_-_FILL">
		<polygon class="st24" points="321.3,613.9 321.3,469.9 428.7,407.9 428.7,465.5 484.5,433.3 484.5,519.7 		"/>
		<polygon class="st24" points="321.3,613.9 321.3,469.9 210.1,375.7 210.1,519.7 		"/>
		<polygon class="st25" points="321.3,469.9 210.1,375.7 223.4,368.1 334.6,462.3 		"/>
		<polygon class="st26" points="321.3,635.5 321.3,613.9 521.9,498.1 521.9,519.7 		"/>
		<polygon class="st26" points="210.1,541.3 210.1,519.7 321.3,613.9 321.3,635.5 		"/>
		<polygon class="st27" points="484.5,519.7 521.9,498.1 484.5,466.5 		"/>
		<polygon class="st25" points="327.3,207.2 373.2,180.8 484.3,274.9 428.4,307.2 428.5,292.9 		"/>
		<polygon class="st24" points="334.6,462.3 334.6,347.1 428.5,292.9 428.4,307.2 484.3,274.9 484.5,433.3 428.7,465.5 428.7,407.9 
					"/>
		<polygon class="st25" points="223.4,252.9 317.2,198.7 428.5,292.9 334.6,347.1 		"/>
		<polygon class="st24" points="223.4,368.1 223.4,252.9 334.6,347.1 334.6,462.3 		"/>
	</g>
</g>
<g id="bldg-line">
	<polyline class="st4" points="484.5,519.7 321.3,613.9 210.1,519.7 	"/>
	<polyline class="st4" points="484.5,505.3 321.3,599.5 210.1,505.3 	"/>
	<polyline class="st4" points="484.5,490.9 321.3,585.1 210.1,490.9 	"/>
	<polyline class="st4" points="484.5,476.5 321.3,570.7 210.1,476.5 	"/>
	<polyline class="st4" points="484.5,462.1 321.3,556.3 210.1,462.1 	"/>
	<polyline class="st4" points="484.5,447.7 321.3,541.9 210.1,447.7 	"/>
	<polyline class="st4" points="484.5,433.3 321.3,527.5 210.1,433.3 	"/>
	<polyline class="st4" points="484.5,418.9 321.3,513.1 210.1,418.9 	"/>
	<polyline class="st4" points="484.2,404.7 321.3,498.7 210.1,404.5 	"/>
	<polyline class="st4" points="484.5,390.1 321.3,484.3 210.1,390.1 	"/>
	<polyline class="st28" points="321.3,635.5 321.3,469.9 210.1,375.7 	"/>
	<polygon class="st29" points="521.9,498.1 521.9,519.7 484.5,541.3 321.3,635.5 210.1,541.3 210.1,375.7 223.4,368.1 223.4,339.3 
		223.4,252.9 317.2,198.7 327.3,207.2 373.2,180.8 484.3,274.9 484.5,466.5 	"/>
	<polyline class="st28" points="484.5,466.5 484.5,519.7 521.9,498.1 	"/>
	<polyline class="st30" points="428.4,292.8 317.2,198.7 223.4,252.9 334.6,347.1 334.6,347.1 334.6,462.3 321.3,469.9 	"/>
	<polyline class="st30" points="484.3,274.9 428.4,307.2 428.4,292.8 428.5,292.9 334.6,347.1 	"/>
	<line class="st28" x1="373.2" y1="180.8" x2="327.3" y2="207.2"/>
	<polyline class="st4" points="223.4,368.1 334.6,462.3 484.5,375.7 	"/>
	<polyline class="st4" points="223.4,353.7 334.6,447.9 484.5,361.3 	"/>
	<polyline class="st4" points="223.4,339.3 334.6,433.5 484.5,346.9 	"/>
	<polyline class="st4" points="223.4,324.9 334.6,419.1 484.5,332.5 	"/>
	<polyline class="st4" points="223.4,310.5 334.6,404.7 484.5,318.1 	"/>
	<polyline class="st4" points="223.4,296.1 334.6,390.3 484.5,303.7 	"/>
	<polyline class="st4" points="223.4,281.7 334.6,375.9 484.5,289.3 	"/>
	<polyline class="st4" points="223.4,267.3 334.6,361.5 484.5,274.9 	"/>
	<line class="st28" x1="223.4" y1="368.1" x2="334.6" y2="462.3"/>
</g>
<g id="envelope-fill">
	<polygon class="st31" points="223.4,339.3 223.4,368.1 210.1,375.7 210.1,541.3 321.3,635.5 521.9,519.7 521.9,498.1 484.5,466.5 
		484.3,274.9 373.2,180.8 368,183.9 317.4,141.1 223.4,195.4 	"/>
</g>
<g id="envelope-behind" class="st32">
	<polyline class="st33" points="373.2,180.8 373.4,425.6 484.5,519.7 	"/>
	<polyline class="st33" points="210.1,519.7 410.7,403.9 484.3,466.2 	"/>
	<line class="st33" x1="410.7" y1="403.9" x2="410.7" y2="425.5"/>
	<polyline class="st33" points="428.4,307.2 317.2,213 368,183.9 	"/>
	<line class="st33" x1="317.2" y1="213" x2="317.5" y2="141.1"/>
</g>
<g id="envelope_1_">
	<g>
		<g>
			<line class="st34" x1="334.6" y1="289.6" x2="334.6" y2="294.1"/>
			<line class="st35" x1="334.6" y1="297.2" x2="334.6" y2="456.2"/>
			<polyline class="st34" points="334.6,457.8 334.6,462.3 330.7,464.5 			"/>
			<polyline class="st34" points="325.2,467.7 321.3,469.9 321.3,474.4 			"/>
			<line class="st36" x1="321.3" y1="477.4" x2="321.3" y2="629.5"/>
			<line class="st34" x1="321.3" y1="631" x2="321.3" y2="635.5"/>
		</g>
	</g>
	<g>
		<g>
			<line class="st34" x1="428.7" y1="235.3" x2="428.7" y2="239.8"/>
			<line class="st37" x1="428.6" y1="242.8" x2="428.4" y2="301.2"/>
			<polyline class="st34" points="428.4,302.7 428.4,307.2 432.3,305 			"/>
			<line class="st38" x1="435.1" y1="303.3" x2="479" y2="278"/>
			<line class="st34" x1="480.4" y1="277.2" x2="484.3" y2="274.9"/>
		</g>
	</g>
	<g>
		<g>
			<line class="st34" x1="428.7" y1="235.3" x2="424.8" y2="237.5"/>
			<line class="st39" x1="422.2" y1="239" x2="339.8" y2="286.6"/>
			<polyline class="st34" points="338.5,287.3 334.6,289.6 331.1,286.7 			"/>
			<line class="st40" x1="328.8" y1="284.7" x2="228" y2="199.3"/>
			<line class="st34" x1="226.8" y1="198.3" x2="223.4" y2="195.4"/>
		</g>
	</g>
	<g>
		<g>
			<line class="st34" x1="223.4" y1="195.4" x2="227.3" y2="193.2"/>
			<line class="st39" x1="229.9" y1="191.6" x2="312.3" y2="144.1"/>
			<polyline class="st34" points="313.6,143.3 317.5,141.1 320.9,144 			"/>
			<line class="st41" x1="323" y1="145.8" x2="363.5" y2="180.1"/>
			<polyline class="st34" points="364.6,181 368,183.9 373.2,180.8 376.6,183.7 			"/>
			<line class="st42" x1="379" y1="185.7" x2="479.7" y2="271"/>
			<polyline class="st34" points="480.9,272 484.3,274.9 484.3,279.4 			"/>
			<line class="st43" x1="484.3" y1="282.4" x2="484.5" y2="460.5"/>
			<polyline class="st34" points="484.5,462 484.5,466.5 487.9,469.4 			"/>
			<line class="st44" x1="490.3" y1="471.4" x2="517.3" y2="494.2"/>
			<polyline class="st34" points="518.5,495.2 521.9,498.1 521.9,502.6 			"/>
			<line class="st45" x1="521.9" y1="505.1" x2="521.9" y2="513.9"/>
			<polyline class="st34" points="521.9,515.2 521.9,519.7 518,521.9 			"/>
			<line class="st46" x1="515.4" y1="523.5" x2="326.5" y2="632.5"/>
			<polyline class="st34" points="325.2,633.3 321.3,635.5 317.9,632.6 			"/>
			<line class="st47" x1="315.5" y1="630.6" x2="214.7" y2="545.2"/>
			<polyline class="st34" points="213.5,544.2 210.1,541.3 210.1,536.8 			"/>
			<line class="st48" x1="210.1" y1="533.8" x2="210.1" y2="381.7"/>
			<polyline class="st34" points="210.1,380.2 210.1,375.7 214,373.5 			"/>
			<polyline class="st34" points="219.5,370.3 223.4,368.1 223.4,363.6 			"/>
			<line class="st35" x1="223.4" y1="360.5" x2="223.4" y2="201.4"/>
			<line class="st34" x1="223.4" y1="199.9" x2="223.4" y2="195.4"/>
		</g>
	</g>
	<g>
		<g>
			<line class="st34" x1="368" y1="183.9" x2="371.4" y2="186.8"/>
			<line class="st49" x1="373.6" y1="188.6" x2="424.2" y2="231.5"/>
			<line class="st34" x1="425.2" y1="232.4" x2="428.7" y2="235.3"/>
		</g>
	</g>
	<g>
		<g>
			<line class="st34" x1="210.1" y1="375.7" x2="213.5" y2="378.6"/>
			<line class="st47" x1="215.9" y1="380.6" x2="316.7" y2="466"/>
			<line class="st34" x1="317.9" y1="467" x2="321.3" y2="469.9"/>
		</g>
	</g>
	<g>
		<g>
			<line class="st34" x1="223.4" y1="368.1" x2="226.8" y2="371"/>
			<line class="st40" x1="229.2" y1="373" x2="330" y2="458.4"/>
			<line class="st34" x1="331.1" y1="459.4" x2="334.6" y2="462.3"/>
		</g>
	</g>
	<g>
		<g>
			<line class="st34" x1="484.5" y1="466.5" x2="484.5" y2="471"/>
			<line class="st50" x1="484.5" y1="474.4" x2="484.5" y2="513.5"/>
			<polyline class="st34" points="484.5,515.2 484.5,519.7 488.4,517.4 			"/>
			<line class="st51" x1="490.7" y1="516.1" x2="516.9" y2="501"/>
			<line class="st34" x1="518" y1="500.4" x2="521.9" y2="498.1"/>
		</g>
	</g>
</g>
<g id="ctx-bldg-front">
	<g id="Layer_20_copy">
		<polygon class="st20" points="321.3,635.5 321.3,473.3 353.9,500.9 353.9,530 402.6,571.2 402.6,704.3 		"/>
		<polygon class="st19" points="402.6,704.3 402.6,571.2 584.4,466.2 584.4,599.3 		"/>
		<polygon class="st19" points="353.9,500.9 412.5,467.1 412.5,496.2 353.9,530 		"/>
		<polygon class="st21" points="321.3,473.3 380,439.5 412.5,467.1 353.9,500.9 		"/>
		<polygon class="st21" points="353.9,530 412.5,496.2 412.5,467.1 400.6,456.9 503.2,397.4 584.4,466.2 402.6,571.2 		"/>
		<line class="st52" x1="210.1" y1="541.3" x2="98.9" y2="447.1"/>
	</g>
	<g id="Layer_21_copy">
		<polygon class="st11" points="321.3,635.5 321.3,473.3 380,439.5 400.4,456.8 503.2,397.4 584.4,466.2 584.4,599.3 402.6,704.3 		
			"/>
		<polyline class="st22" points="400.4,456.8 412.5,467.1 412.5,496.2 353.9,530 		"/>
		<polyline class="st22" points="321.3,473.3 353.9,500.9 412.5,467.1 		"/>
		<polyline class="st22" points="353.9,500.9 353.9,530 402.6,571.2 584.4,466.2 		"/>
		<line class="st22" x1="402.6" y1="571.2" x2="402.6" y2="704.3"/>
	</g>
</g>
<g id="air-rights-anno">
	<g id="fill" class="st32">
		<polygon class="st19" points="584.4,396 584.4,466.2 402.6,571.2 402.6,500.9 		"/>
		<polygon class="st20" points="321.3,432.1 402.6,500.9 402.6,571.2 353.9,530 353.9,500.9 321.3,473.3 		"/>
		<polygon class="st21" points="321.3,432.1 503.2,327.1 584.4,396 402.6,500.9 		"/>
		<polygon class="st20" points="98.9,243.8 210.1,337.9 210.1,413 98.9,318.9 		"/>
		<polygon class="st21" points="294.6,251.1 321.3,273.7 294.6,289.2 210.1,338 98.9,243.8 299.4,128 384,199.6 		"/>
		<polygon class="st20" points="420.2,287 420.2,355 384,324.3 384,256.3 		"/>
		<polygon class="st19" points="420.2,355 420.2,287 496.7,242.8 496.7,310.8 		"/>
		<polyline class="st21" points="496.7,242.8 420.2,287 299.4,184.7 375.9,140.5 496.7,242.8 		"/>
		<polygon class="st19" points="384,199.6 384,274.7 321.3,310.8 321.3,273.7 294.6,251.1 		"/>
		<polygon class="st19" points="321.3,273.7 321.3,348.8 210.1,413 210.1,338 294.6,289.2 		"/>
	</g>
	<g id="line">
		<g>
			<g>
				<polyline class="st7" points="580.5,398.2 584.4,396 584.4,400.5 				"/>
				<line class="st53" x1="584.4" y1="403.4" x2="584.4" y2="460.3"/>
				<polyline class="st7" points="584.4,461.7 584.4,466.2 580.5,468.5 				"/>
				<line class="st54" x1="578" y1="469.9" x2="407.7" y2="568.2"/>
				<polyline class="st7" points="406.5,569 402.6,571.2 402.6,566.7 				"/>
				<line class="st53" x1="402.6" y1="563.8" x2="402.6" y2="506.9"/>
				<polyline class="st7" points="402.6,505.4 402.6,500.9 406.5,498.7 				"/>
				<line class="st54" x1="409" y1="497.2" x2="579.3" y2="398.9"/>
			</g>
		</g>
		<g>
			<g>
				<polyline class="st7" points="321.3,436.6 321.3,432.1 324.8,435 				"/>
				<line class="st55" x1="327" y1="437" x2="398" y2="497.1"/>
				<polyline class="st7" points="399.1,498 402.6,500.9 402.6,505.4 				"/>
				<line class="st53" x1="402.6" y1="508.4" x2="402.6" y2="565.3"/>
				<polyline class="st7" points="402.6,566.7 402.6,571.2 399.1,568.3 				"/>
				<line class="st56" x1="396.7" y1="566.2" x2="358.6" y2="534"/>
				<polyline class="st7" points="357.3,533 353.9,530 353.9,525.5 				"/>
				<line class="st57" x1="353.9" y1="521.5" x2="353.9" y2="507.5"/>
				<polyline class="st7" points="353.9,505.4 353.9,500.9 350.5,498 				"/>
				<line class="st58" x1="348.5" y1="496.4" x2="325.7" y2="477.1"/>
				<polyline class="st7" points="324.8,476.2 321.3,473.3 321.3,468.8 				"/>
				<line class="st59" x1="321.3" y1="465.2" x2="321.3" y2="438.4"/>
			</g>
		</g>
		<g>
			<g>
				<polyline class="st7" points="324.8,435 321.3,432.1 325.2,429.9 				"/>
				<line class="st54" x1="327.7" y1="428.4" x2="498" y2="330.1"/>
				<polyline class="st7" points="499.3,329.4 503.2,327.1 506.6,330.1 				"/>
				<line class="st55" x1="508.9" y1="332" x2="579.9" y2="392.1"/>
				<polyline class="st7" points="581,393 584.4,396 580.5,398.2 				"/>
				<line class="st54" x1="578" y1="399.7" x2="407.7" y2="498"/>
				<polyline class="st7" points="406.5,498.7 402.6,500.9 399.1,498 				"/>
				<line class="st55" x1="396.9" y1="496.1" x2="325.9" y2="436"/>
			</g>
		</g>
		<g>
			<g>
				<line class="st7" x1="321.3" y1="310.8" x2="321.3" y2="306.3"/>
				<line class="st60" x1="321.3" y1="303.2" x2="321.3" y2="279.8"/>
				<polyline class="st7" points="321.3,278.2 321.3,273.7 317.9,270.8 				"/>
				<line class="st61" x1="315.7" y1="269" x2="299.2" y2="255"/>
				<polyline class="st7" points="298.1,254 294.6,251.1 298.5,248.9 				"/>
				<line class="st62" x1="301" y1="247.5" x2="378.8" y2="202.5"/>
				<line class="st7" x1="380.1" y1="201.8" x2="384" y2="199.6"/>
			</g>
		</g>
		<g>
			<g>
				<line class="st7" x1="384" y1="199.6" x2="384" y2="204.1"/>
				<line class="st63" x1="384" y1="207.2" x2="384" y2="268.6"/>
				<polyline class="st7" points="384,270.2 384,274.7 380.1,276.9 				"/>
				<line class="st64" x1="377.5" y1="278.4" x2="326.5" y2="307.8"/>
				<line class="st7" x1="325.2" y1="308.6" x2="321.3" y2="310.8"/>
			</g>
		</g>
		<g>
			<g>
				<line class="st7" x1="210.1" y1="338" x2="214" y2="335.7"/>
				<polyline class="st65" points="216.5,334.2 294.6,289.2 316.2,276.7 				"/>
				<line class="st7" x1="317.4" y1="276" x2="321.3" y2="273.7"/>
			</g>
		</g>
		<g>
			<g>
				<line class="st7" x1="321.3" y1="310.8" x2="321.3" y2="315.3"/>
				<line class="st66" x1="321.3" y1="318.5" x2="321.3" y2="342.7"/>
				<polyline class="st7" points="321.3,344.3 321.3,348.8 317.4,351.1 				"/>
				<line class="st65" x1="314.9" y1="352.5" x2="215.3" y2="410.1"/>
				<line class="st7" x1="214" y1="410.8" x2="210.1" y2="413"/>
			</g>
		</g>
		<g>
			<g>
				<polyline class="st7" points="98.9,248.3 98.9,243.8 102.3,246.7 				"/>
				<line class="st67" x1="104.6" y1="248.6" x2="205.5" y2="334.1"/>
				<polyline class="st7" points="206.7,335 210.1,337.9 210.1,342.4 				"/>
				<line class="st68" x1="210.1" y1="345.6" x2="210.1" y2="407"/>
				<polyline class="st7" points="210.1,408.5 210.1,413 206.7,410.1 				"/>
				<line class="st67" x1="204.4" y1="408.2" x2="103.5" y2="322.7"/>
				<polyline class="st7" points="102.3,321.8 98.9,318.9 98.9,314.4 				"/>
				<line class="st68" x1="98.9" y1="311.2" x2="98.9" y2="249.8"/>
			</g>
		</g>
		<g>
			<g>
				<line class="st7" x1="98.9" y1="243.8" x2="102.8" y2="241.5"/>
				<line class="st69" x1="105.4" y1="240" x2="294.2" y2="131"/>
				<polyline class="st7" points="295.5,130.2 299.4,128 302.9,130.9 				"/>
				<line class="st70" x1="305.2" y1="132.9" x2="379.4" y2="195.6"/>
				<line class="st7" x1="380.5" y1="196.6" x2="384" y2="199.6"/>
			</g>
		</g>
		<g>
			<g>
				<line class="st7" x1="420.2" y1="355" x2="416.8" y2="352.1"/>
				<line class="st71" x1="414.5" y1="350.1" x2="387.8" y2="327.5"/>
				<line class="st7" x1="386.7" y1="326.5" x2="383.2" y2="323.6"/>
			</g>
		</g>
		<g>
			<g>
				<line class="st7" x1="420.2" y1="287" x2="420.2" y2="291.5"/>
				<line class="st72" x1="420.2" y1="294.3" x2="420.2" y2="349.1"/>
				<line class="st7" x1="420.2" y1="350.5" x2="420.2" y2="355"/>
			</g>
		</g>
		<g>
			<g>
				<line class="st7" x1="496.7" y1="242.8" x2="496.7" y2="247.3"/>
				<line class="st72" x1="496.7" y1="250.2" x2="496.7" y2="304.9"/>
				<polyline class="st7" points="496.7,306.3 496.7,310.8 492.8,313.1 				"/>
				<line class="st73" x1="490.1" y1="314.7" x2="425.5" y2="351.9"/>
				<line class="st7" x1="424.1" y1="352.7" x2="420.2" y2="355"/>
			</g>
		</g>
		<g>
			<g>
				<line class="st7" x1="339.3" y1="161.7" x2="343.2" y2="159.4"/>
				<line class="st74" x1="345.4" y1="158.2" x2="370.9" y2="143.4"/>
				<polyline class="st7" points="372,142.8 375.9,140.5 379.4,143.4 				"/>
				<line class="st75" x1="381.7" y1="145.4" x2="492.1" y2="238.9"/>
				<line class="st7" x1="493.3" y1="239.9" x2="496.7" y2="242.8"/>
			</g>
		</g>
		<g>
			<g>
				<line class="st7" x1="496.7" y1="242.8" x2="492.8" y2="245.1"/>
				<line class="st73" x1="490.1" y1="246.7" x2="425.5" y2="284"/>
				<polyline class="st7" points="424.1,284.8 420.2,287 416.8,284.1 				"/>
				<line class="st76" x1="414.5" y1="282.1" x2="387.8" y2="259.5"/>
				<line class="st7" x1="386.7" y1="258.6" x2="383.2" y2="255.7"/>
			</g>
		</g>
	</g>
	<g id="air-rights-label-3">
		<g>
			<polygon class="st0" points="527.7,175.6 527.7,228.6 470,228.6 461.9,241.1 453.7,228.6 393.7,228.6 393.7,175.6 			"/>
		</g>
		<g>
			<path class="st9" d="M436.6,198.3v-1.5c4-3.1,5.6-4.5,5.6-6.1c0-1.1-0.9-1.6-1.9-1.6c-1.2,0-2.1,0.5-2.8,1.3l-1.1-1.2
				c0.9-1.2,2.4-1.7,3.8-1.7c2,0,3.7,1.2,3.7,3.3c0,2-1.7,3.7-4.5,5.9h4.6v1.6H436.6z"/>
			<path class="st9" d="M446.7,200.4l-0.7-0.6c0.5-0.3,1-1,1.1-1.5c0,0-0.2,0-0.3,0c-0.5,0-0.9-0.4-0.9-1s0.5-1.1,1.1-1.1
				s1.2,0.5,1.2,1.5C448.1,198.7,447.5,199.8,446.7,200.4z"/>
			<path class="st9" d="M449.2,196.7l1-1.2c0.7,0.8,1.7,1.3,2.8,1.3c1.4,0,2.1-0.7,2.1-1.6c0-1.1-0.8-1.5-2.3-1.5c-0.4,0-1,0-1.2,0
				V192c0.2,0,0.8,0,1.2,0c1.2,0,2.1-0.4,2.1-1.4s-0.9-1.5-2.1-1.5c-1.1,0-1.9,0.4-2.7,1.2l-0.9-1.2c0.8-1,2.1-1.7,3.8-1.7
				c2.2,0,3.7,1.1,3.7,2.9c0,1.4-1.2,2.3-2.2,2.4c1,0.1,2.4,0.9,2.4,2.6c0,1.8-1.5,3.1-3.9,3.1C451.3,198.4,449.9,197.7,449.2,196.7
				z"/>
			<path class="st9" d="M460.7,198.3V190l-1.7,1.8l-1.1-1.1l3-3.1h1.6v10.7L460.7,198.3L460.7,198.3z"/>
			<path class="st9" d="M464.7,197.2l0.9-1.4c0.5,0.6,1.1,0.9,2.1,0.9c1.9,0,2.7-1.8,2.7-3.5c0-0.1,0-0.2,0-0.3
				c-0.5,0.7-1.5,1.5-2.8,1.5c-1.9,0-3.4-1.2-3.4-3.4c0-2,1.5-3.6,3.8-3.6c3,0,4.3,2.5,4.3,5.5c0,3.1-1.6,5.5-4.5,5.5
				C466.4,198.4,465.4,197.9,464.7,197.2z M470.4,191.6c-0.1-1.2-0.7-2.5-2.3-2.5c-1.4,0-2.1,1-2.1,1.9c0,1.3,1,1.9,2.1,1.9
				C469,192.8,469.8,192.3,470.4,191.6z"/>
			<path class="st9" d="M477.5,198.3v-1.5l5.3-7.5h-5.3v-1.6h7.6v1.5l-5.3,7.5h5.4v1.6H477.5z"/>
			<path class="st9" d="M487,198.3v-10.7h7.1v1.6h-5.3v2.8h5.1v1.6h-5.1v4.6L487,198.3L487,198.3z"/>
			<path class="st9" d="M502.4,198.3l-0.8-2.1h-4.7l-0.8,2.1H494l4-10.7h2.3l4,10.7H502.4z M499.2,189.4l-1.9,5.1h3.7L499.2,189.4z"
				/>
		</g>
		<g>
			<path class="st9" d="M408,215.8l-2.2-3.3h-1.7v3.3h-0.7v-8h2.9c1.3,0,2.4,0.9,2.4,2.3c0,1.5-1,2.3-2.1,2.3l2.2,3.4H408z
				 M408,210.1c0-1-0.7-1.7-1.7-1.7h-2.2v3.4h2.2C407.3,211.8,408,211.1,408,210.1z"/>
			<path class="st9" d="M410.2,208.6c0-0.3,0.2-0.5,0.5-0.5s0.5,0.2,0.5,0.5s-0.2,0.5-0.5,0.5C410.4,209,410.2,208.8,410.2,208.6z
				 M410.3,215.8V210h0.6v5.8H410.3z"/>
			<path class="st9" d="M412.8,217.2l0.3-0.5c0.5,0.6,1,0.8,1.9,0.8c1,0,1.9-0.5,1.9-1.8v-0.9c-0.4,0.6-1.1,1.1-1.9,1.1
				c-1.5,0-2.5-1.2-2.5-3s1-3,2.5-3c0.8,0,1.5,0.4,1.9,1.1v-1h0.6v5.7c0,1.8-1.2,2.4-2.5,2.4C414.1,218.1,413.5,217.9,412.8,217.2z
				 M416.9,214.3v-2.8c-0.3-0.6-1.1-1.1-1.8-1.1c-1.2,0-2,1.1-2,2.5s0.7,2.5,2,2.5C415.9,215.3,416.6,214.8,416.9,214.3z"/>
			<path class="st9" d="M423.2,215.8v-3.9c0-1.1-0.5-1.4-1.4-1.4c-0.7,0-1.5,0.5-1.8,1v4.4h-0.6v-8h0.6v3.1c0.4-0.5,1.2-1,2-1
				c1.1,0,1.8,0.6,1.8,1.9v4.1h-0.6V215.8z"/>
			<path class="st9" d="M425.8,214.6v-4.1h-0.9V210h0.9v-1.6h0.6v1.6h1.1v0.6h-1.1v4c0,0.5,0.2,0.8,0.6,0.8c0.3,0,0.5-0.1,0.6-0.3
				l0.2,0.5c-0.2,0.2-0.5,0.4-0.9,0.4C426.1,215.9,425.8,215.4,425.8,214.6z"/>
			<path class="st9" d="M428.4,215l0.4-0.5c0.4,0.5,1,0.9,1.8,0.9c0.9,0,1.5-0.5,1.5-1.2c0-1.6-3.5-0.7-3.5-2.8c0-0.9,0.7-1.6,2-1.6
				c1,0,1.6,0.4,2,0.9l-0.3,0.4c-0.3-0.5-0.9-0.8-1.7-0.8c-0.9,0-1.4,0.5-1.4,1.1c0,1.5,3.5,0.6,3.5,2.8c0,0.9-0.7,1.7-2.1,1.7
				C429.6,215.9,428.9,215.6,428.4,215z"/>
			<path class="st9" d="M437.2,215.8v-8h2.9c1.5,0,2.3,1.1,2.3,2.3c0,1.3-0.9,2.3-2.3,2.3h-2.2v3.3L437.2,215.8L437.2,215.8z
				 M441.7,210.1c0-1-0.7-1.7-1.7-1.7h-2.2v3.4h2.2C441.1,211.8,441.7,211.1,441.7,210.1z"/>
			<path class="st9" d="M443.8,215.8V210h0.6v1c0.5-0.6,1.1-1.1,1.9-1.1v0.7c-0.1,0-0.2,0-0.3,0c-0.6,0-1.3,0.5-1.6,1v4.2
				L443.8,215.8L443.8,215.8z"/>
			<path class="st9" d="M447.2,212.8c0-1.7,1.1-3,2.7-3c1.7,0,2.6,1.4,2.6,3.1v0.2h-4.7c0.1,1.3,0.9,2.3,2.2,2.3
				c0.7,0,1.4-0.3,1.8-0.8l0.3,0.4c-0.6,0.6-1.3,0.9-2.2,0.9C448.3,215.9,447.2,214.6,447.2,212.8z M449.8,210.4c-1.3,0-2,1.2-2,2.2
				h4.1C451.9,211.6,451.2,210.4,449.8,210.4z"/>
			<path class="st9" d="M455.5,215.8l-2.4-5.8h0.7l2,5.1l2-5.1h0.7l-2.4,5.8H455.5z"/>
			<path class="st9" d="M459.5,208.6c0-0.3,0.2-0.5,0.5-0.5s0.5,0.2,0.5,0.5s-0.2,0.5-0.5,0.5C459.7,209,459.5,208.8,459.5,208.6z
				 M459.6,215.8V210h0.6v5.8H459.6z"/>
			<path class="st9" d="M461.8,212.8c0-1.7,1-3,2.7-3s2.7,1.3,2.7,3s-1,3-2.7,3C462.8,215.9,461.8,214.5,461.8,212.8z M466.5,212.8
				c0-1.3-0.7-2.5-2.1-2.5c-1.3,0-2,1.2-2,2.5s0.7,2.5,2,2.5C465.8,215.3,466.5,214.1,466.5,212.8z"/>
			<path class="st9" d="M472.5,215.8v-0.9c-0.5,0.5-1.2,1-2,1c-1.1,0-1.8-0.6-1.8-1.9v-4h0.6v3.9c0,1.1,0.5,1.4,1.4,1.4
				c0.7,0,1.4-0.4,1.8-1V210h0.6v5.8H472.5z"/>
			<path class="st9" d="M474.5,215l0.4-0.5c0.4,0.5,1,0.9,1.8,0.9c0.9,0,1.5-0.5,1.5-1.2c0-1.6-3.5-0.7-3.5-2.8c0-0.9,0.7-1.6,2-1.6
				c1,0,1.6,0.4,2,0.9l-0.3,0.4c-0.3-0.5-0.9-0.8-1.7-0.8c-0.9,0-1.4,0.5-1.4,1.1c0,1.5,3.5,0.6,3.5,2.8c0,0.9-0.7,1.7-2.1,1.7
				C475.7,215.9,475,215.6,474.5,215z"/>
			<path class="st9" d="M480.3,215.8v-8h0.6v8H480.3z"/>
			<path class="st9" d="M482.5,217.4c0.1,0.1,0.3,0.1,0.5,0.1c0.4,0,0.6-0.2,0.9-0.7l0.4-1l-2.4-5.8h0.7l2,5.1l2-5.1h0.7l-2.9,7.1
				c-0.3,0.7-0.8,1.1-1.4,1.1c-0.2,0-0.5,0-0.6-0.1L482.5,217.4z"/>
			<path class="st9" d="M490.9,214.6l0.4-0.5c0.5,0.6,1.3,1.2,2.4,1.2c1.6,0,2-0.9,2-1.6c0-2.4-4.6-1.1-4.6-3.9
				c0-1.3,1.1-2.1,2.5-2.1c1.1,0,2,0.4,2.6,1.1l-0.4,0.5c-0.6-0.7-1.3-1-2.2-1c-1,0-1.8,0.6-1.8,1.5c0,2.1,4.6,0.9,4.6,3.9
				c0,1-0.7,2.3-2.7,2.3C492.5,215.9,491.5,215.4,490.9,214.6z"/>
			<path class="st9" d="M497.8,212.8c0-1.7,1-3,2.7-3s2.7,1.3,2.7,3s-1,3-2.7,3C498.8,215.9,497.8,214.5,497.8,212.8z M502.5,212.8
				c0-1.3-0.7-2.5-2.1-2.5c-1.3,0-2,1.2-2,2.5s0.7,2.5,2,2.5C501.8,215.3,502.5,214.1,502.5,212.8z"/>
			<path class="st9" d="M504.7,215.8v-8h0.6v8H504.7z"/>
			<path class="st9" d="M511.3,215.8v-0.9c-0.4,0.6-1.1,1.1-1.9,1.1c-1.5,0-2.5-1.2-2.5-3s1-3,2.5-3c0.8,0,1.5,0.4,1.9,1.1V208h0.6
				v8h-0.6V215.8z M511.3,214.3v-2.9c-0.3-0.6-1.1-1.1-1.8-1.1c-1.2,0-2,1.1-2,2.5s0.7,2.5,2,2.5C510.3,215.3,511,214.9,511.3,214.3
				z"/>
		</g>
		<path class="st9" d="M426.3,191.6l-2.9,2.3c-0.1,0.1-0.3,0.1-0.4,0.1c-0.4,0-0.7-0.3-0.7-0.7v-1.6h-10.1c-0.6,0-1.1-0.5-1.1-1.2
			s0.5-1.2,1.1-1.2h10.1v-1.6c0-0.4,0.3-0.7,0.7-0.7c0.2,0,0.3,0,0.4,0.1l2.9,2.3l0,0c0.6,0.4,0.7,1.3,0.3,1.9
			C426.4,191.4,426.3,191.5,426.3,191.6z M427.9,198.7h-10.1v1.6c0,0.4-0.3,0.7-0.7,0.7c-0.1,0-0.3,0-0.4-0.1l-2.9-2.3
			c-0.1-0.1-0.2-0.2-0.2-0.3c-0.4-0.6-0.3-1.4,0.3-1.9l0,0l2.9-2.3c0.1-0.1,0.2-0.1,0.4-0.1c0.4,0,0.7,0.3,0.7,0.7v1.6H428
			c0.6,0,1.1,0.5,1.1,1.2S428.5,198.7,427.9,198.7z"/>
	</g>
	<g id="air-rights-label-2">
		<g>
			<g>
				<polygon class="st0" points="513.9,370.6 513.9,423.6 461,423.6 452.9,436.1 444.7,423.6 391.8,423.6 391.8,370.6 				"/>
			</g>
		</g>
		<g>
			<path class="st9" d="M413.5,390.3c0-1.3,1.1-2.3,2.3-2.8c-1.2-0.4-2.1-1.2-2.1-2.5c0-2,2-2.8,3.8-2.8s3.8,0.8,3.8,2.8
				c0,1.3-1,2.1-2.1,2.5c1.3,0.4,2.3,1.4,2.3,2.8c0,1.9-1.9,2.9-4,2.9C415.3,393.3,413.5,392.3,413.5,390.3z M419.5,390.1
				c0-1.1-1.5-1.6-2.1-1.7c-0.6,0.1-2.1,0.6-2.1,1.7c0,0.9,0.9,1.5,2.1,1.5S419.5,391.1,419.5,390.1z M419.4,385.4
				c0-0.9-0.8-1.4-1.9-1.4s-1.9,0.5-1.9,1.4c0,1,1.3,1.4,1.9,1.5C418.1,386.7,419.4,386.3,419.4,385.4z"/>
			<path class="st9" d="M423.6,395.2l-0.7-0.6c0.5-0.3,1-1,1.1-1.5c0,0-0.2,0-0.3,0c-0.5,0-0.9-0.4-0.9-1s0.5-1.1,1.1-1.1
				s1.2,0.5,1.2,1.5C425.1,393.6,424.5,394.6,423.6,395.2z"/>
			<path class="st9" d="M426.1,387.8c0-3.1,1.6-5.5,4.5-5.5c1.3,0,2.3,0.5,3,1.2l-0.8,1.4c-0.5-0.6-1.1-0.9-2.1-0.9
				c-1.7,0-2.7,1.6-2.7,3.5c0,0.1,0,0.2,0,0.3c0.5-0.7,1.6-1.5,2.8-1.5c1.9,0,3.5,1.2,3.5,3.5c0,2-1.5,3.6-3.8,3.6
				C427.3,393.3,426.1,390.7,426.1,387.8z M432.3,389.8c0-1.3-1-1.9-2.1-1.9c-0.9,0-1.7,0.5-2.3,1.2c0.1,1.2,0.7,2.5,2.3,2.5
				C431.6,391.6,432.3,390.6,432.3,389.8z"/>
			<path class="st9" d="M435.6,391.6l1-1.3c0.7,0.8,1.6,1.3,2.8,1.3c1.3,0,2.1-0.8,2.1-1.9s-0.8-1.9-2.1-1.9c-0.9,0-1.6,0.3-2.3,0.9
				l-1.3-0.4v-6h6.8v1.6h-4.9v3.1c0.5-0.5,1.3-0.9,2.3-0.9c1.7,0,3.3,1.2,3.3,3.4c0,2.2-1.6,3.6-3.9,3.6
				C437.6,393.3,436.4,392.7,435.6,391.6z"/>
			<path class="st9" d="M444.9,391.6l1-1.3c0.7,0.8,1.6,1.3,2.8,1.3c1.3,0,2.1-0.8,2.1-1.9s-0.8-1.9-2.1-1.9c-0.9,0-1.6,0.3-2.3,0.9
				l-1.3-0.4v-6h6.8v1.6H447v3.1c0.5-0.5,1.3-0.9,2.3-0.9c1.7,0,3.3,1.2,3.3,3.4c0,2.2-1.6,3.6-3.9,3.6
				C446.9,393.3,445.7,392.7,444.9,391.6z"/>
			<path class="st9" d="M457.9,393.1v-1.5l5.3-7.5h-5.3v-1.6h7.6v1.5l-5.3,7.5h5.4v1.6H457.9z"/>
			<path class="st9" d="M467.4,393.1v-10.7h7.1v1.6h-5.3v2.8h5.1v1.6h-5.1v4.6h-1.8V393.1z"/>
			<path class="st9" d="M482.8,393.1L482,391h-4.7l-0.8,2.1h-2.1l4-10.7h2.3l4,10.7H482.8z M479.6,384.3l-1.9,5.1h3.7L479.6,384.3z"
				/>
		</g>
		<g>
			<path class="st9" d="M414.2,410.6l-2.2-3.3h-1.7v3.3h-0.7v-8h2.9c1.3,0,2.4,0.9,2.4,2.3c0,1.5-1,2.3-2.1,2.3l2.2,3.4L414.2,410.6
				L414.2,410.6z M414.2,404.9c0-1-0.7-1.7-1.7-1.7h-2.2v3.4h2.2C413.5,406.7,414.2,405.9,414.2,404.9z"/>
			<path class="st9" d="M416.3,403.4c0-0.3,0.2-0.5,0.5-0.5s0.5,0.2,0.5,0.5s-0.2,0.5-0.5,0.5C416.6,403.9,416.3,403.7,416.3,403.4z
				 M416.5,410.6v-5.8h0.6v5.8H416.5z"/>
			<path class="st9" d="M419,412.1l0.3-0.5c0.5,0.6,1,0.8,1.9,0.8c1,0,1.9-0.5,1.9-1.8v-0.9c-0.4,0.6-1.1,1.1-1.9,1.1
				c-1.5,0-2.5-1.2-2.5-3s1-3,2.5-3c0.8,0,1.5,0.4,1.9,1.1V405h0.6v5.7c0,1.8-1.2,2.4-2.5,2.4C420.3,413,419.7,412.8,419,412.1z
				 M423.1,409.1v-2.8c-0.3-0.6-1.1-1.1-1.8-1.1c-1.2,0-2,1.1-2,2.5s0.7,2.5,2,2.5C422,410.2,422.8,409.7,423.1,409.1z"/>
			<path class="st9" d="M429.4,410.6v-3.9c0-1.1-0.5-1.4-1.4-1.4c-0.7,0-1.5,0.5-1.8,1v4.4h-0.6v-8h0.6v3.1c0.4-0.5,1.2-1,2-1
				c1.1,0,1.8,0.6,1.8,1.9v4.1h-0.6V410.6z"/>
			<path class="st9" d="M432,409.5v-4.1h-1v-0.6h0.9v-1.6h0.6v1.6h1.1v0.6h-1.1v4c0,0.5,0.2,0.8,0.6,0.8c0.3,0,0.5-0.1,0.6-0.3
				l0.2,0.5c-0.2,0.2-0.5,0.4-1,0.4C432.3,410.7,432,410.3,432,409.5z"/>
			<path class="st9" d="M434.5,409.8l0.4-0.5c0.4,0.5,1,0.9,1.8,0.9c0.9,0,1.5-0.5,1.5-1.2c0-1.6-3.5-0.7-3.5-2.8
				c0-0.9,0.7-1.6,2-1.6c1,0,1.6,0.4,2,0.9l-0.3,0.4c-0.3-0.5-0.9-0.8-1.7-0.8c-0.9,0-1.4,0.5-1.4,1.1c0,1.5,3.5,0.6,3.5,2.8
				c0,0.9-0.7,1.7-2.1,1.7C435.8,410.7,435.1,410.5,434.5,409.8z"/>
			<path class="st9" d="M449,410.6l-0.8-2h-4.1l-0.8,2h-0.8l3.2-8h0.8l3.2,8H449z M446.2,403.3l-1.8,4.7h3.7L446.2,403.3z"/>
			<path class="st9" d="M452.1,410.6l-2.4-5.8h0.7l2,5.1l2-5.1h0.7l-2.4,5.8H452.1z"/>
			<path class="st9" d="M459.8,410.6v-0.7c-0.5,0.6-1.1,0.8-1.9,0.8c-1,0-2-0.7-2-1.9c0-1.3,1-1.9,2-1.9c0.8,0,1.4,0.3,1.9,0.8v-1.2
				c0-0.9-0.7-1.3-1.5-1.3c-0.7,0-1.3,0.3-1.8,0.9l-0.3-0.4c0.6-0.6,1.2-1,2.2-1c1.1,0,2,0.6,2,1.9v4.1L459.8,410.6L459.8,410.6z
				 M459.8,409.5v-1.3c-0.4-0.5-1-0.8-1.7-0.8c-0.9,0-1.5,0.6-1.5,1.4s0.6,1.4,1.5,1.4C458.7,410.3,459.4,410,459.8,409.5z"/>
			<path class="st9" d="M462.1,403.4c0-0.3,0.2-0.5,0.5-0.5s0.5,0.2,0.5,0.5s-0.2,0.5-0.5,0.5C462.3,403.9,462.1,403.7,462.1,403.4z
				 M462.2,410.6v-5.8h0.6v5.8H462.2z"/>
			<path class="st9" d="M464.7,410.6v-8h0.6v8H464.7z"/>
			<path class="st9" d="M470.8,410.6v-0.7c-0.5,0.6-1.1,0.8-1.9,0.8c-1,0-2-0.7-2-1.9c0-1.3,1-1.9,2-1.9c0.8,0,1.4,0.3,1.9,0.8v-1.2
				c0-0.9-0.7-1.3-1.5-1.3c-0.7,0-1.3,0.3-1.8,0.9l-0.3-0.4c0.6-0.6,1.2-1,2.2-1c1.1,0,2,0.6,2,1.9v4.1L470.8,410.6L470.8,410.6z
				 M470.8,409.5v-1.3c-0.4-0.5-1-0.8-1.7-0.8c-0.9,0-1.5,0.6-1.5,1.4s0.6,1.4,1.5,1.4C469.7,410.3,470.4,410,470.8,409.5z"/>
			<path class="st9" d="M473.2,410.6v-8h0.6v3.1c0.5-0.7,1.2-1.1,1.9-1.1c1.5,0,2.5,1.2,2.5,3c0,1.9-1,3-2.5,3
				c-0.8,0-1.6-0.5-1.9-1.1v0.9h-0.6V410.6z M475.7,410.2c1.3,0,2-1.1,2-2.5s-0.7-2.5-2-2.5c-0.8,0-1.5,0.5-1.8,1.1v2.9
				C474.2,409.7,474.9,410.2,475.7,410.2z"/>
			<path class="st9" d="M479.9,410.6v-8h0.6v8H479.9z"/>
			<path class="st9" d="M482,407.7c0-1.7,1.1-3,2.7-3c1.7,0,2.6,1.4,2.6,3.1v0.2h-4.7c0.1,1.3,0.9,2.3,2.2,2.3
				c0.7,0,1.4-0.3,1.8-0.8l0.3,0.4c-0.6,0.6-1.3,0.9-2.2,0.9C483.2,410.7,482,409.5,482,407.7z M484.7,405.2c-1.3,0-2,1.2-2,2.2h4.1
				C486.7,406.4,486.1,405.2,484.7,405.2z"/>
		</g>
	</g>
	<g id="air-rights-label-1">
		<g>
			<g>
				<polygon class="st0" points="300.9,107.6 300.9,160.6 248,160.6 239.9,173.1 231.7,160.6 178.8,160.6 178.8,107.6 				"/>
			</g>
		</g>
		<g>
			<path class="st9" d="M200,129.9v-8.3l-1.7,1.8l-1.1-1.1l3-3.1h1.6v10.7H200z"/>
			<path class="st9" d="M203.7,129.9v-1.5c4-3.1,5.6-4.5,5.6-6.1c0-1.1-0.9-1.6-1.9-1.6c-1.2,0-2.1,0.5-2.8,1.3l-1.1-1.2
				c0.9-1.2,2.4-1.7,3.8-1.7c2,0,3.7,1.2,3.7,3.3c0,2-1.7,3.7-4.5,5.9h4.6v1.6L203.7,129.9L203.7,129.9z"/>
			<path class="st9" d="M213.7,132l-0.7-0.6c0.5-0.3,1-1,1.1-1.5c0,0-0.2,0-0.3,0c-0.5,0-0.9-0.4-0.9-1s0.5-1.1,1.1-1.1
				s1.2,0.5,1.2,1.5C215.2,130.4,214.6,131.4,213.7,132z"/>
			<path class="st9" d="M221.3,129.9v-2.4h-4.9V126l4.2-6.8h2.5v6.6h1.4v1.6h-1.4v2.4h-1.8V129.9z M221.3,120.9l-3.1,4.9h3.1V120.9z
				"/>
			<path class="st9" d="M225.5,124.6c0-2.7,1.2-5.5,4.1-5.5c2.9,0,4.1,2.8,4.1,5.5s-1.2,5.5-4.1,5.5S225.5,127.3,225.5,124.6z
				 M231.9,124.6c0-2-0.6-3.8-2.3-3.8s-2.3,1.8-2.3,3.8s0.6,3.9,2.3,3.9C231.3,128.4,231.9,126.6,231.9,124.6z"/>
			<path class="st9" d="M235.5,128.9l0.9-1.4c0.5,0.6,1.1,0.9,2.1,0.9c1.9,0,2.7-1.8,2.7-3.5c0-0.1,0-0.2,0-0.3
				c-0.5,0.7-1.5,1.5-2.8,1.5c-1.9,0-3.4-1.2-3.4-3.4c0-2,1.5-3.6,3.8-3.6c3,0,4.3,2.5,4.3,5.5c0,3.1-1.6,5.5-4.5,5.5
				C237.2,130.1,236.2,129.6,235.5,128.9z M241.2,123.2c-0.1-1.2-0.7-2.5-2.3-2.5c-1.4,0-2.1,1-2.1,1.9c0,1.3,1,1.9,2.1,1.9
				C239.8,124.5,240.7,124,241.2,123.2z"/>
			<path class="st9" d="M248.4,129.9v-1.5l5.3-7.5h-5.3v-1.6h7.6v1.5l-5.3,7.5h5.4v1.6H248.4z"/>
			<path class="st9" d="M257.9,129.9v-10.7h7.1v1.6h-5.3v2.8h5.1v1.6h-5.1v4.6L257.9,129.9L257.9,129.9z"/>
			<path class="st9" d="M273.2,129.9l-0.8-2.1h-4.7l-0.8,2.1h-2.1l4-10.7h2.3l4,10.7H273.2z M270.1,121.1l-1.9,5.1h3.7L270.1,121.1z
				"/>
		</g>
		<g>
			<path class="st9" d="M201.5,147.4l-2.2-3.3h-1.7v3.3H197v-8h2.9c1.3,0,2.4,0.9,2.4,2.3c0,1.5-1,2.3-2.1,2.3l2.2,3.4H201.5z
				 M201.5,141.8c0-1-0.7-1.7-1.7-1.7h-2.2v3.4h2.2C200.8,143.5,201.5,142.8,201.5,141.8z"/>
			<path class="st9" d="M203.7,140.2c0-0.3,0.2-0.5,0.5-0.5s0.5,0.2,0.5,0.5s-0.2,0.5-0.5,0.5S203.7,140.5,203.7,140.2z
				 M203.8,147.4v-5.8h0.6v5.8H203.8z"/>
			<path class="st9" d="M206.3,148.9l0.3-0.5c0.5,0.6,1,0.8,1.9,0.8c1,0,1.9-0.5,1.9-1.8v-0.9c-0.4,0.6-1.1,1.1-1.9,1.1
				c-1.5,0-2.5-1.2-2.5-3s1-3,2.5-3c0.8,0,1.5,0.4,1.9,1.1v-0.9h0.6v5.7c0,1.8-1.2,2.4-2.5,2.4C207.6,149.8,207,149.6,206.3,148.9z
				 M210.4,145.9v-2.8c-0.3-0.6-1.1-1.1-1.8-1.1c-1.2,0-2,1.1-2,2.5s0.7,2.5,2,2.5C209.4,147,210.1,146.5,210.4,145.9z"/>
			<path class="st9" d="M216.7,147.4v-3.9c0-1.1-0.5-1.4-1.4-1.4c-0.7,0-1.5,0.5-1.8,1v4.4h-0.6v-8h0.6v3.1c0.4-0.5,1.2-1,2-1
				c1.1,0,1.8,0.6,1.8,1.9v4.1h-0.6V147.4z"/>
			<path class="st9" d="M219.3,146.3v-4.1h-0.9v-0.6h0.9V140h0.6v1.6h1.1v0.6h-1.1v4c0,0.5,0.2,0.8,0.6,0.8c0.3,0,0.5-0.1,0.6-0.3
				l0.2,0.5c-0.2,0.2-0.5,0.4-1,0.4C219.7,147.6,219.3,147.1,219.3,146.3z"/>
			<path class="st9" d="M221.9,146.6l0.4-0.5c0.4,0.5,1,0.9,1.8,0.9c0.9,0,1.5-0.5,1.5-1.2c0-1.6-3.5-0.7-3.5-2.8
				c0-0.9,0.7-1.6,2-1.6c1,0,1.6,0.4,2,0.9l-0.3,0.4c-0.3-0.5-0.9-0.8-1.7-0.8c-0.9,0-1.4,0.5-1.4,1.1c0,1.5,3.5,0.6,3.5,2.8
				c0,0.9-0.7,1.7-2.1,1.7C223.1,147.6,222.4,147.3,221.9,146.6z"/>
			<path class="st9" d="M236.3,147.4l-0.8-2h-4.1l-0.8,2h-0.8l3.2-8h0.8l3.2,8H236.3z M233.5,140.1l-1.8,4.7h3.7L233.5,140.1z"/>
			<path class="st9" d="M239.5,147.4l-2.4-5.8h0.7l2,5.1l2-5.1h0.7l-2.4,5.8H239.5z"/>
			<path class="st9" d="M247.1,147.4v-0.7c-0.5,0.6-1.1,0.8-1.9,0.8c-1,0-2-0.7-2-1.9c0-1.3,1-1.9,2-1.9c0.8,0,1.4,0.3,1.9,0.8v-1.2
				c0-0.9-0.7-1.3-1.5-1.3c-0.7,0-1.3,0.3-1.8,0.9l-0.3-0.4c0.6-0.6,1.2-1,2.2-1c1.1,0,2,0.6,2,1.9v4.1h-0.6V147.4z M247.1,146.3
				V145c-0.4-0.5-1-0.8-1.7-0.8c-0.9,0-1.5,0.6-1.5,1.4c0,0.8,0.6,1.4,1.5,1.4C246.1,147.1,246.7,146.8,247.1,146.3z"/>
			<path class="st9" d="M249.4,140.2c0-0.3,0.2-0.5,0.5-0.5s0.5,0.2,0.5,0.5s-0.2,0.5-0.5,0.5C249.6,140.7,249.4,140.5,249.4,140.2z
				 M249.6,147.4v-5.8h0.6v5.8H249.6z"/>
			<path class="st9" d="M252.1,147.4v-8h0.6v8H252.1z"/>
			<path class="st9" d="M258.1,147.4v-0.7c-0.5,0.6-1.1,0.8-1.9,0.8c-1,0-2-0.7-2-1.9c0-1.3,1-1.9,2-1.9c0.8,0,1.4,0.3,1.9,0.8v-1.2
				c0-0.9-0.7-1.3-1.5-1.3c-0.7,0-1.3,0.3-1.8,0.9l-0.3-0.4c0.6-0.6,1.2-1,2.2-1c1.1,0,2,0.6,2,1.9v4.1h-0.6V147.4z M258.1,146.3
				V145c-0.4-0.5-1-0.8-1.7-0.8c-0.9,0-1.5,0.6-1.5,1.4c0,0.8,0.6,1.4,1.5,1.4C257.1,147.1,257.7,146.8,258.1,146.3z"/>
			<path class="st9" d="M260.6,147.4v-8h0.6v3.1c0.5-0.7,1.2-1.1,1.9-1.1c1.5,0,2.5,1.2,2.5,3c0,1.9-1,3-2.5,3
				c-0.8,0-1.6-0.5-1.9-1.1v0.9h-0.6V147.4z M263,147c1.3,0,2-1.1,2-2.5s-0.7-2.5-2-2.5c-0.8,0-1.5,0.5-1.8,1.1v2.9
				C261.5,146.5,262.2,147,263,147z"/>
			<path class="st9" d="M267.2,147.4v-8h0.6v8H267.2z"/>
			<path class="st9" d="M269.4,144.5c0-1.7,1.1-3,2.7-3c1.7,0,2.6,1.4,2.6,3.1v0.2H270c0.1,1.3,0.9,2.3,2.2,2.3
				c0.7,0,1.4-0.3,1.8-0.8l0.3,0.4c-0.6,0.6-1.3,0.9-2.2,0.9C270.5,147.6,269.4,146.3,269.4,144.5z M272,142c-1.3,0-2,1.2-2,2.2h4.1
				C274.1,143.2,273.4,142,272,142z"/>
		</g>
	</g>
</g>
</svg>
